<?xml version="1.0" encoding="UTF-8"?>
<svg width="20px" height="18px" viewBox="0 0 20 18" version="1.1" xmlns="http://www.w3.org/2000/svg" xmlns:xlink="http://www.w3.org/1999/xlink">
    <!-- Generator: sketchtool 59.1 (101010) - https://sketch.com -->
    <title>339437B4-CB02-43C9-B0C0-ABD27BC8D852</title>
    <desc>Created with sketchtool.</desc>
    <g id="Page-1" stroke="none" stroke-width="1" fill="none" fill-rule="evenodd">
        <g id="VIGOR-Landing-page" transform="translate(-1216.000000, -5321.000000)" fill="#5981F0">
            <g id="03__components-/-footer" transform="translate(0.000000, 4751.000000)">
                <path d="M1228.66667,585.333333 L1228.66667,586.666667 C1228.66667,587.041669 1228.53819,587.357638 1228.28125,587.614583 C1228.0243,587.871529 1227.70834,588 1227.33333,588 L1217.33333,588 C1216.95833,588 1216.64236,587.868057 1216.38542,587.604167 C1216.12847,587.340277 1216,587.027779 1216,586.666667 L1216,571.333333 C1216,570.972221 1216.13194,570.659723 1216.39583,570.395835 C1216.65972,570.131944 1216.97222,570 1217.33333,570 L1224,570 L1224,574 C1224,574.375003 1224.13194,574.690971 1224.39583,574.947917 C1224.65972,575.204861 1224.97222,575.333333 1225.33333,575.333333 L1228.66667,575.333333 L1228.66667,576.666667 L1222.66667,576.666667 C1222.11111,576.666667 1221.63889,576.861109 1221.25,577.25 C1220.86111,577.638891 1220.66667,578.111109 1220.66667,578.666667 L1220.66667,583.333333 C1220.66667,583.888891 1220.86111,584.361109 1221.25,584.75 C1221.63889,585.138891 1222.11111,585.333333 1222.66667,585.333333 L1228.66667,585.333333 Z M1228.66667,574.666667 L1225.33333,574.666667 C1225.15278,574.666667 1224.99653,574.600696 1224.86458,574.468749 C1224.73264,574.336805 1224.66667,574.180557 1224.66667,574 L1224.66667,570 L1228.66667,574.666667 Z M1222.66667,577.333333 L1234,577.333333 C1234.36111,577.333333 1234.67361,577.461805 1234.9375,577.718749 C1235.20139,577.975696 1235.33333,578.291664 1235.33333,578.666667 L1235.33333,583.333333 C1235.33333,583.694445 1235.20486,584.006944 1234.94792,584.270832 C1234.69097,584.534723 1234.375,584.666667 1234,584.666667 L1222.66667,584.666667 C1222.30555,584.666667 1221.99306,584.538195 1221.72917,584.281251 C1221.46528,584.024304 1221.33333,583.708336 1221.33333,583.333333 L1221.33333,578.666667 C1221.33333,578.305555 1221.46181,577.993056 1221.71875,577.729168 C1221.9757,577.465277 1222.29166,577.333333 1222.66667,577.333333 Z M1231.33333,580.666667 L1231.33333,579.333333 L1234,579.333333 L1234,578.666667 L1230.66667,578.666667 L1230.66667,583.333333 L1231.33333,583.333333 L1231.33333,581.333333 L1233.33333,581.333333 L1233.33333,580.666667 L1231.33333,580.666667 Z M1222.66667,580 L1222.66667,583.333333 L1223.33333,583.333333 L1223.33333,581.333333 L1224.66667,581.333333 C1225.02778,581.333333 1225.34028,581.204861 1225.60417,580.947917 C1225.86806,580.690971 1226,580.375003 1226,580 C1226,579.624997 1225.87153,579.309029 1225.61458,579.052083 C1225.35764,578.795139 1225.04167,578.666667 1224.66667,578.666667 L1222.66667,578.666667 L1222.66667,580 Z M1224.66667,579.333333 C1224.84722,579.333333 1225.00347,579.399304 1225.13542,579.531251 C1225.26736,579.663195 1225.33333,579.819443 1225.33333,580 C1225.33333,580.180557 1225.26736,580.336805 1225.13542,580.468749 C1225.00347,580.600696 1224.84722,580.666667 1224.66667,580.666667 L1223.33333,580.666667 L1223.33333,579.333333 L1224.66667,579.333333 Z M1226.66667,578.666667 L1226.66667,583.333333 L1228.66667,583.333333 C1229.02778,583.333333 1229.34028,583.204861 1229.60417,582.947917 C1229.86806,582.690971 1230,582.375003 1230,582 L1230,580 C1230,579.638888 1229.87153,579.326389 1229.61458,579.062501 C1229.35764,578.798611 1229.04167,578.666667 1228.66667,578.666667 L1226.66667,578.666667 Z M1228.66667,579.333333 C1228.84722,579.333333 1229.00347,579.399304 1229.13542,579.531251 C1229.26736,579.663195 1229.33333,579.819443 1229.33333,580 L1229.33333,582 C1229.33333,582.180557 1229.26736,582.336805 1229.13542,582.468749 C1229.00347,582.600696 1228.84722,582.666667 1228.66667,582.666667 L1227.33333,582.666667 L1227.33333,579.333333 L1228.66667,579.333333 Z" id="Fill-1-Copy-4"></path>
            </g>
        </g>
    </g>
</svg>