<?xml version="1.0" encoding="UTF-8"?>
<svg width="20px" height="16px" viewBox="0 0 20 16" version="1.1" xmlns="http://www.w3.org/2000/svg" xmlns:xlink="http://www.w3.org/1999/xlink">
    <!-- Generator: sketchtool 59.1 (101010) - https://sketch.com -->
    <title>F9D80268-EFE9-4FEA-9DB2-5635E8024B98</title>
    <desc>Created with sketchtool.</desc>
    <g id="Page-1" stroke="none" stroke-width="1" fill="none" fill-rule="evenodd">
        <g id="VIGOR-Landing-page" transform="translate(-205.000000, -5185.000000)" fill="#4468CC">
            <g id="03__components-/-footer" transform="translate(0.000000, 4751.000000)">
                <g id="Group-5" transform="translate(205.000000, 387.000000)">
                    <path d="M10.144899,59.5232152 C9.78744104,59.8806748 9.42626267,60.2344058 9.06135529,60.5844186 C8.69644792,60.9344311 8.3352724,61.2881621 7.97781159,61.6456217 C7.84376486,61.7647751 7.70599485,61.857862 7.56450155,61.9248859 C7.4230054,61.9919096 7.26289569,62.0254208 7.08416671,62.0254208 C6.96501311,62.0105265 6.86820206,61.9770153 6.79373356,61.9248859 C6.7192622,61.8727562 6.65968683,61.7871162 6.61500458,61.6679629 C6.34690826,60.8189959 6.07509437,59.9663183 5.79955148,59.1099051 C5.52401146,58.2534902 5.24474815,57.4008129 4.9617587,56.5518445 C4.93197244,56.46248 4.89846004,56.3954581 4.86122436,56.3507758 C4.82398868,56.3060936 4.76069003,56.2688579 4.67132554,56.2390716 C4.01598215,56.0454467 3.36809676,55.8481013 2.72764793,55.6470298 C2.08719909,55.4459582 1.43931313,55.2411692 0.783970314,55.0326482 C0.694605254,55.0028619 0.608965192,54.9730728 0.527047268,54.9432837 C0.445129545,54.9134975 0.366936419,54.8762618 0.292465631,54.8315795 C0.113735768,54.7273191 0.0169252024,54.5969985 0.00203104482,54.4406092 C-0.0128631128,54.2842199 0.0541595955,54.1464527 0.203101143,54.0272991 C0.322254403,53.9230387 0.448852827,53.833677 0.582900216,53.7592057 C0.71694752,53.6847343 0.850993108,53.6251589 0.985040412,53.5804767 C1.80421908,53.252805 2.62338516,52.9325856 3.4425624,52.619807 C4.26174164,52.3070313 5.08090944,51.9942585 5.90008868,51.6814828 C6.88310091,51.2942328 7.86982498,50.9107148 8.86028663,50.5309143 C9.85074828,50.1511138 10.8411928,49.7713161 11.8316544,49.3915156 C12.8221161,49.0117151 13.8125634,48.628197 14.8030251,48.2409471 C15.7934867,47.8537001 16.7802079,47.4739053 17.763223,47.1015513 C18.1504701,46.9526086 18.4706895,46.9675046 18.7238898,47.1462336 C18.977093,47.3249625 19.0887972,47.6228423 19.0590081,48.0398785 C19.029219,48.3079719 18.9845367,48.5723392 18.9249614,48.832989 C18.865386,49.0936359 18.8058078,49.3580032 18.7462324,49.6260995 C18.5377143,50.653794 18.3217525,51.6852003 18.0983384,52.7203442 C17.8749272,53.7554881 17.6552421,54.7906149 17.4392775,55.8257587 C17.2233128,56.8609026 17.0036249,57.8960322 16.7802137,58.9311761 C16.5568024,59.9663192 16.3333912,60.9977241 16.10998,62.0254208 C16.10998,62.0403151 16.10998,62.0514855 16.10998,62.0589326 C16.10998,62.0663795 16.10998,62.0701031 16.10998,62.0701031 C16.0057195,62.546716 15.7972071,62.8408712 15.4844286,62.9525774 C15.17165,63.0642834 14.8216443,62.9786434 14.4343944,62.6956545 C13.7492648,62.1892532 13.067867,61.686583 12.3901839,61.1876286 C11.712498,60.6886745 11.031103,60.1860042 10.3459705,59.6796016 C10.3161814,59.6498153 10.2863952,59.6237495 10.256606,59.6014098 C10.2268169,59.5790672 10.1895841,59.5530043 10.144899,59.5232152 Z M7.10650641,60.7966591 C7.12140239,60.7966591 7.13257224,60.7929355 7.1400188,60.7854884 C7.14746537,60.7780415 7.15119151,60.774318 7.15119151,60.774318 C7.15119151,60.7594237 7.15491479,60.7408064 7.16236136,60.7184653 C7.16980792,60.6961239 7.1735312,60.6775066 7.1735312,60.6626124 C7.21821345,60.2008937 7.26289569,59.7354594 7.30757793,59.2662915 C7.35226018,58.7971265 7.38949586,58.3316906 7.41928497,57.8699721 C7.4341781,57.7657116 7.46396436,57.6689035 7.50864946,57.579539 C7.55333171,57.4901716 7.61290708,57.4082566 7.68737844,57.3337852 C8.29803672,56.7827023 8.90496601,56.2353484 9.50817773,55.691712 C10.1113923,55.1480757 10.7145955,54.6044479 11.31781,54.0608115 C11.9210218,53.5171752 12.5242278,52.9735446 13.1274395,52.4299082 C13.7306541,51.8862719 14.3375805,51.3463674 14.9482417,50.8101776 C15.0525021,50.7059171 15.1642063,50.6016623 15.2833599,50.4974019 C15.4025107,50.3931414 15.5142148,50.2888866 15.6184753,50.1846262 C15.6482644,50.154837 15.6668808,50.1176042 15.6743274,50.072922 C15.681774,50.0282369 15.6929467,49.9835575 15.7078398,49.9388724 C15.6631576,49.9388724 15.6221986,49.9277025 15.5849629,49.9053629 C15.5477272,49.8830203 15.5067711,49.8718505 15.4620889,49.8718505 C15.3876175,49.8867436 15.3131462,49.9090861 15.2386748,49.9388724 C15.1642063,49.9686615 15.0897349,50.0058972 15.0152664,50.0505794 C14.8514306,50.1399439 14.6913209,50.236755 14.5349316,50.3410154 C14.3785423,50.4452731 14.2258792,50.5420841 14.0769365,50.6314486 C13.3769137,51.0782739 12.6806199,51.5176441 11.9880437,51.9495762 C11.2954646,52.3815055 10.602897,52.8171524 9.91031793,53.2565311 C9.21774172,53.695907 8.52517123,54.1315568 7.83259501,54.5634861 C7.14001594,54.9954154 6.45117159,55.4347884 5.76603909,55.8816137 C5.6766746,55.9262959 5.62082251,55.9784247 5.59848282,56.0380001 C5.57614026,56.0975755 5.58731117,56.1720469 5.63199521,56.2614113 C5.7213597,56.5295048 5.81072133,56.8050448 5.90008868,57.0880314 C5.98945317,57.3710209 6.07881479,57.6465609 6.16818214,57.9146544 C6.33201513,58.4061619 6.49212484,58.8902143 6.64851412,59.3668287 C6.8049034,59.8434403 6.95756655,60.3200461 7.10650641,60.7966591 Z" id="telegram"></path>
                </g>
            </g>
        </g>
    </g>
</svg>