<?xml version="1.0" encoding="UTF-8"?>
<svg width="161px" height="48px" viewBox="0 0 161 48" version="1.1" xmlns="http://www.w3.org/2000/svg" xmlns:xlink="http://www.w3.org/1999/xlink">
    <!-- Generator: sketchtool 59.1 (101010) - https://sketch.com -->
    <title>F27EFB73-0C3D-4A5E-8CDE-1235010E5886</title>
    <desc>Created with sketchtool.</desc>
    <g id="Page-1" stroke="none" stroke-width="1" fill="none" fill-rule="evenodd">
        <g id="VIGOR-Landing-page" transform="translate(-539.000000, -4246.000000)" fill="#FFFFFF">
            <g id="Group-18" transform="translate(332.000000, 4243.000000)">
                <g id="Group-17" transform="translate(9.000000, 0.000000)">
                    <g id="eosdac" transform="translate(198.000000, 3.000000)">
                        <polygon id="Shape_2_copy_9" points="29.997 0.289333333 24.9886667 3.53766667 24.0726667 13.958 31.056 6.15333333 29.997 0.289333333"></polygon>
                        <polygon id="Shape_2" points="16.627 6.20366667 17.209 16.6506667 22.1136667 20.045 23.3606667 14.212 16.627 6.20366667"></polygon>
                        <polygon id="Shape_2_copy" points="24.3996667 14.1593333 25.4593333 20.0236667 30.4676667 16.775 31.3833333 6.355 24.3996667 14.1593333"></polygon>
                        <polygon id="Shape_2_copy_2" points="31.2466667 17.459 27.8546667 22.348 33.6873333 23.5933333 41.6923333 16.8823333"></polygon>
                        <polygon id="Shape_2_copy_3" points="33.743 24.665 27.8796667 25.7256667 31.1266667 30.7366667 41.546 31.6513333 33.743 24.665"></polygon>
                        <polygon id="Shape_2_copy_4" points="30.4423333 31.5156667 25.5533333 28.124 24.3066667 33.9563333 31.0183333 41.9606667 30.4423333 31.5156667"></polygon>
                        <polygon id="Shape_2_copy_5" points="22.2123333 28.1836667 17.2003333 31.4306667 16.286 41.8506667 23.273 34.0476667 22.2123333 28.1836667"></polygon>
                        <polygon id="Shape_2_copy_6" points="13.944 24.5743333 5.94066667 31.2853333 16.3853333 30.7113333 19.7763333 25.821"></polygon>
                        <polygon id="Shape_2_copy_7" points="16.5063333 17.4326667 6.08666667 16.5183333 13.8893333 23.5073333 19.7533333 22.4456667 16.5063333 17.4326667"></polygon>
                        <polygon id="Shape_2_copy_15" points="5.887 16.8396667 0.0236666667 17.9003333 3.271 22.9133333 13.6893333 23.8286667 5.887 16.8396667"></polygon>
                        <polygon id="Shape_2_copy_8" points="16.2563333 6.28633333 11.361 2.88866667 10.1163333 8.727 16.8373333 16.743"></polygon>
                        <polygon id="Shape_2_copy_10" points="39.1693333 10.3913333 31.164 17.102 41.6103333 16.5266667 45.0026667 11.6373333 39.1693333 10.3913333"></polygon>
                        <polygon id="Shape_2_copy_11" points="44.3613333 25.2553333 33.9426667 24.34 41.745 31.3283333 47.609 30.2676667"></polygon>
                        <polygon id="Shape_2_copy_12" points="30.7983333 31.4323333 31.3736667 41.8773333 36.264 45.269 37.5096667 39.4366667 30.7983333 31.4323333"></polygon>
                        <polygon id="Shape_2_copy_13" points="16.5716667 42.014 17.6326667 47.8783333 22.645 44.6306667 23.56 34.2103333"></polygon>
                        <polygon id="Shape_2_copy_14" points="6.02233333 31.642 2.63066667 36.5323333 8.46433333 37.7793333 16.4683333 31.0676667"></polygon>
                        <polygon id="Shape_2_copy_16" points="8.72033333 37.94 15.9583333 41.7656667 16.837 31.219"></polygon>
                        <polygon id="Shape_2_copy_17" points="3.34466667 23.2073333 5.75733333 31.0303333 13.8363333 24.1943333 3.34466667 23.2073333"></polygon>
                        <polygon id="Shape_2_copy_18" points="9.961 8.98633333 6.14733333 16.213 16.6856667 17.1036667 9.961 8.98633333"></polygon>
                        <polygon id="Shape_2_copy_19" points="16.8793333 6.018 23.707 14.1053333 24.6883333 3.60666667"></polygon>
                        <polygon id="Shape_2_copy_20" points="31.69 6.414 30.7993333 16.9566667 38.9143333 10.229"></polygon>
                        <polygon id="Shape_2_copy_21" points="41.8836667 17.148 33.7966667 23.9753333 44.2946667 24.9556667"></polygon>
                        <polygon id="Shape_2_copy_22" points="30.944 31.069 37.6713333 39.1833333 41.4883333 31.9583333 30.944 31.069"></polygon>
                        <polygon id="Shape_2_copy_23" points="23.926 34.0643333 22.9456667 44.5616667 30.7546667 42.1513333 23.926 34.0643333"></polygon>
                        <g id="Group" transform="translate(57.000000, 11.333333)" fill-rule="nonzero">
                            <path d="M7.25533333,21.8936667 C6.23066667,21.8936667 5.28833333,21.7026667 4.428,21.321 C3.568,20.9393333 2.826,20.4076667 2.20266667,19.726 C1.57933333,19.0446667 1.09333333,18.2353333 0.745666667,17.2976667 C0.397666667,16.36 0.223666667,15.3306667 0.223666667,14.2096667 L0.223666667,13.586 C0.223666667,12.378 0.404666667,11.2833333 0.767333333,10.3023333 C1.12966667,9.32133333 1.62033333,8.48533333 2.239,7.794 C2.85733333,7.103 3.57033333,6.569 4.37733333,6.192 C5.18433333,5.815 6.03733333,5.62666667 6.93633333,5.62666667 C7.93166667,5.62666667 8.81633333,5.80533333 9.58933333,6.163 C10.3626667,6.52066667 11.0126667,7.01833333 11.5393333,7.65633333 C12.0663333,8.29433333 12.465,9.053 12.7356667,9.93266667 C13.0063333,10.812 13.1416667,11.774 13.1416667,12.8176667 L13.1416667,13.876 L1.949,13.876 L1.949,14.2096667 C1.949,15.0696667 2.07933333,15.8793333 2.34033333,16.638 C2.60133333,17.3966667 2.96866667,18.0563333 3.44233333,18.617 C3.91566667,19.1776667 4.48133333,19.62 5.13833333,19.9436667 C5.79566667,20.2673333 6.52533333,20.4293333 7.32766667,20.4293333 C8.25566667,20.4293333 9.07466667,20.2603333 9.78533333,19.922 C10.4956667,19.5836667 11.1406667,19.0423333 11.7206667,18.298 L12.808,19.1243333 C12.547,19.5013333 12.245,19.859 11.902,20.1973333 C11.5586667,20.5356667 11.16,20.8303333 10.706,21.0816667 C10.2516667,21.333 9.73933333,21.5313333 9.169,21.6763333 C8.59866667,21.821 7.96066667,21.8936667 7.25533333,21.8936667 L7.25533333,21.8936667 Z M6.93633333,7.10533333 C6.279,7.10533333 5.67,7.231 5.10966667,7.48233333 C4.549,7.73366667 4.05366667,8.09133333 3.62333333,8.55533333 C3.19333333,9.01933333 2.84066667,9.57733333 2.565,10.2296667 C2.28966667,10.8823333 2.10366667,11.6046667 2.007,12.3973333 L11.4163333,12.3973333 L11.4163333,12.2086667 C11.397,11.5516667 11.2906667,10.916 11.0973333,10.3023333 C10.904,9.68866667 10.6213333,9.145 10.249,8.67133333 C9.877,8.19766667 9.41533333,7.81833333 8.86466667,7.533 C8.31366667,7.248 7.671,7.10533333 6.93633333,7.10533333 L6.93633333,7.10533333 Z" id="Shape"></path>
                            <path d="M15.5626667,13.528 C15.5626667,12.3876667 15.7293333,11.334 16.063,10.3676667 C16.3963333,9.401 16.8676667,8.56733333 17.4766667,7.86666667 C18.0853333,7.16566667 18.82,6.61733333 19.6803333,6.221 C20.5403333,5.82466667 21.4973333,5.62666667 22.551,5.62666667 C23.6236667,5.62666667 24.5926667,5.82466667 25.4576667,6.221 C26.323,6.61733333 27.06,7.16566667 27.6686667,7.86666667 C28.2776667,8.56733333 28.7466667,9.401 29.075,10.3676667 C29.4036667,11.334 29.568,12.3876667 29.568,13.528 L29.568,14.0066667 C29.568,15.147 29.4036667,16.2006667 29.075,17.1673333 C28.7466667,18.1336667 28.2776667,18.9673333 27.6686667,19.6683333 C27.06,20.369 26.3253333,20.915 25.465,21.3063333 C24.605,21.698 23.643,21.8936667 22.58,21.8936667 C21.5166667,21.8936667 20.555,21.698 19.6946667,21.3063333 C18.8346667,20.915 18.0976667,20.369 17.4836667,19.6683333 C16.87,18.9673333 16.3963333,18.1336667 16.063,17.1673333 C15.7293333,16.2006667 15.5626667,15.147 15.5626667,14.0066667 L15.5626667,13.528 L15.5626667,13.528 Z M17.3026667,14.0066667 C17.3026667,14.8666667 17.4186667,15.686 17.6506667,16.464 C17.8823333,17.242 18.2206667,17.9236667 18.6653333,18.5083333 C19.11,19.093 19.661,19.5593333 20.3183333,19.9073333 C20.9753333,20.2553333 21.7293333,20.4293333 22.58,20.4293333 C23.4303333,20.4293333 24.182,20.2553333 24.8343333,19.9073333 C25.4866667,19.5593333 26.0353333,19.093 26.48,18.5083333 C26.9246667,17.9236667 27.263,17.242 27.4946667,16.464 C27.7266667,15.686 27.8426667,14.8666667 27.8426667,14.0066667 L27.8426667,13.528 C27.8426667,12.6873333 27.7266667,11.8776667 27.4946667,11.0996667 C27.263,10.3216667 26.9246667,9.63766667 26.48,9.04833333 C26.0353333,8.45866667 25.482,7.98733333 24.82,7.63466667 C24.1576667,7.28166667 23.4013333,7.10533333 22.551,7.10533333 C21.71,7.10533333 20.9633333,7.28166667 20.311,7.63466667 C19.6586667,7.98733333 19.11,8.45866667 18.6653333,9.04833333 C18.2206667,9.63766667 17.8823333,10.3216667 17.6506667,11.0996667 C17.4186667,11.8776667 17.3026667,12.6873333 17.3026667,13.528 L17.3026667,14.0066667 L17.3026667,14.0066667 Z" id="Shape"></path>
                            <path d="M42.544,17.6166667 C42.544,17.2976667 42.4883333,16.9786667 42.3773333,16.6596667 C42.266,16.3406667 42.0583333,16.0386667 41.754,15.7536667 C41.4493333,15.4686667 41.024,15.2026667 40.478,14.9563333 C39.932,14.7096667 39.224,14.4946667 38.354,14.311 C37.484,14.1273333 36.7083333,13.9146667 36.027,13.673 C35.3456667,13.4313333 34.7706667,13.139 34.3016667,12.796 C33.833,12.453 33.4776667,12.0443333 33.236,11.571 C32.9946667,11.0973333 32.8736667,10.5416667 32.8736667,9.90366667 C32.8736667,9.32366667 33.0016667,8.77266667 33.258,8.25066667 C33.514,7.729 33.8813333,7.27466667 34.3596667,6.888 C34.8383333,6.50133333 35.418,6.19433333 36.0996667,5.96733333 C36.781,5.74 37.547,5.62666667 38.3976667,5.62666667 C39.306,5.62666667 40.1203333,5.745 40.8403333,5.98166667 C41.5606667,6.21866667 42.1696667,6.54733333 42.6673333,6.96766667 C43.165,7.388 43.5443333,7.88333333 43.8053333,8.45366667 C44.0663333,9.024 44.197,9.64266667 44.197,10.3096667 L42.457,10.3096667 C42.457,9.90366667 42.3676667,9.50733333 42.1886667,9.12066667 C42.01,8.734 41.749,8.39333333 41.406,8.09866667 C41.0626667,7.80366667 40.6376667,7.56466667 40.13,7.381 C39.6226667,7.19733333 39.045,7.10533333 38.3976667,7.10533333 C37.721,7.10533333 37.1433333,7.18766667 36.665,7.352 C36.1866667,7.51633333 35.795,7.729 35.4906667,7.98966667 C35.186,8.25066667 34.964,8.543 34.8236667,8.867 C34.6836667,9.19066667 34.6133333,9.517 34.6133333,9.84566667 C34.6133333,10.1936667 34.6666667,10.51 34.773,10.7953333 C34.8793333,11.0803333 35.0846667,11.346 35.389,11.5926667 C35.6936667,11.839 36.119,12.0663333 36.665,12.274 C37.211,12.482 37.924,12.6873333 38.8033333,12.8903333 C39.7506667,13.1126667 40.5673333,13.359 41.2536667,13.6296667 C41.94,13.9003333 42.5076667,14.2216667 42.9573333,14.5936667 C43.4066667,14.966 43.74,15.3913333 43.9576667,15.8696667 C44.175,16.348 44.2836667,16.9013333 44.2836667,17.5296667 C44.2836667,18.1773333 44.1486667,18.7693333 43.878,19.3056667 C43.6073333,19.842 43.2206667,20.3013333 42.718,20.683 C42.2153333,21.065 41.6063333,21.362 40.8913333,21.5746667 C40.176,21.7873333 39.3786667,21.8936667 38.499,21.8936667 C37.5033333,21.8936667 36.624,21.7656667 35.8603333,21.5093333 C35.0966667,21.2533333 34.454,20.9076667 33.932,20.4726667 C33.41,20.038 33.0163333,19.5376667 32.7503333,18.9723333 C32.4846667,18.4066667 32.3516667,17.8196667 32.3516667,17.2106667 L34.0916667,17.2106667 C34.1303333,17.8293333 34.2896667,18.344 34.57,18.7546667 C34.8503333,19.1656667 35.1983333,19.4943333 35.614,19.7406667 C36.0293333,19.987 36.491,20.1636667 36.9983333,20.27 C37.506,20.3763333 38.006,20.4293333 38.499,20.4293333 C39.1563333,20.4293333 39.7363333,20.352 40.2386667,20.1973333 C40.7413333,20.0426667 41.1643333,19.835 41.5073333,19.574 C41.8506667,19.313 42.109,19.0133333 42.283,18.675 C42.457,18.3366667 42.544,17.984 42.544,17.6166667 L42.544,17.6166667 Z" id="Path"></path>
                            <path d="M47.807,21.6036667 L47.807,0.494333333 L54.302,0.494333333 C55.723,0.494333333 57.0253333,0.738333333 58.2093333,1.22633333 C59.3933333,1.71433333 60.4083333,2.40066667 61.254,3.285 C62.0996667,4.16966667 62.7593333,5.23033333 63.233,6.46733333 C63.7066667,7.70466667 63.9433333,9.07733333 63.9433333,10.585 L63.9433333,11.542 C63.9433333,13.0496667 63.709,14.4196667 63.2403333,15.652 C62.7716667,16.8846667 62.1093333,17.943 61.254,18.8273333 C60.3986667,19.7116667 59.3766667,20.3956667 58.1876667,20.8786667 C56.9986667,21.362 55.689,21.6036667 54.2586667,21.6036667 L47.807,21.6036667 L47.807,21.6036667 Z M52.1563333,4.01733333 L52.1563333,18.1096667 L54.2586667,18.1096667 C55.979,18.1096667 57.2886667,17.5416667 58.1876667,16.406 C59.0866667,15.2703333 59.536,13.649 59.536,11.542 L59.536,10.556 C59.536,8.41033333 59.0913333,6.784 58.2023333,5.67733333 C57.313,4.57066667 56.013,4.01733333 54.302,4.01733333 L52.1563333,4.01733333 Z" id="Shape"></path>
                            <path d="M78.7173333,17.2543333 L71.091,17.2543333 L69.6413333,21.6036667 L65.0163333,21.6036667 L72.8743333,0.494333333 L76.905,0.494333333 L84.8066667,21.6036667 L80.1816667,21.6036667 L78.7173333,17.2543333 Z M72.2653333,13.731 L77.543,13.731 L74.8896667,5.82966667 L72.2653333,13.731 L72.2653333,13.731 Z" id="Shape"></path>
                            <path d="M103.045333,14.572 C102.968,15.645 102.726333,16.6306667 102.320333,17.5296667 C101.914333,18.4286667 101.354,19.1993333 100.638667,19.842 C99.9233333,20.485 99.056,20.9876667 98.0363333,21.35 C97.0163333,21.7123333 95.8543333,21.8936667 94.5493333,21.8936667 C93.1963333,21.8936667 91.9806667,21.6593333 90.903,21.1903333 C89.8253333,20.7216667 88.912,20.0476667 88.163,19.168 C87.4136667,18.2883333 86.8386667,17.2226667 86.4376667,15.971 C86.0363333,14.7193333 85.836,13.3156667 85.836,11.7593333 L85.836,10.3676667 C85.836,8.81133333 86.0436667,7.405 86.4593333,6.14866667 C86.875,4.892 87.462,3.824 88.221,2.94433333 C88.9796667,2.065 89.9003333,1.38833333 90.9826667,0.914666667 C92.0653333,0.441 93.2733333,0.204333333 94.6073333,0.204333333 C95.922,0.204333333 97.084,0.390333333 98.0943333,0.762333333 C99.1043333,1.13466667 99.962,1.65166667 100.667667,2.31366667 C101.373333,2.97566667 101.924,3.76366667 102.320333,4.677 C102.716667,5.59033333 102.968,6.58333333 103.074333,7.65633333 L98.725,7.65633333 C98.6766667,7.028 98.5676667,6.47233333 98.3986667,5.989 C98.2293333,5.50566667 97.9853333,5.09966667 97.6663333,4.77133333 C97.3476667,4.44266667 96.9366667,4.19366667 96.434,4.02466667 C95.9316667,3.85533333 95.3226667,3.77066667 94.6073333,3.77066667 C93.1383333,3.77066667 92.0436667,4.305 91.3233333,5.373 C90.6033333,6.441 90.2433333,8.096 90.2433333,10.3386667 L90.2433333,11.7593333 C90.2433333,12.8516667 90.323,13.8083333 90.4826667,14.63 C90.642,15.4516667 90.8933333,16.138 91.2363333,16.6886667 C91.5796667,17.2396667 92.0243333,17.653 92.5703333,17.9283333 C93.1163333,18.204 93.776,18.3416667 94.5493333,18.3416667 C95.2356667,18.3416667 95.8276667,18.2643333 96.3253333,18.1096667 C96.823,17.955 97.2386667,17.7206667 97.5723333,17.4063333 C97.9056667,17.0923333 98.1643333,16.6983333 98.348,16.2246667 C98.5316667,15.7513333 98.6476667,15.2003333 98.696,14.572 L103.045333,14.572 L103.045333,14.572 Z" id="Path"></path>
                        </g>
                    </g>
                </g>
            </g>
        </g>
    </g>
</svg>