<?xml version="1.0" encoding="UTF-8"?>
<svg width="145px" height="54px" viewBox="0 0 145 54" version="1.1" xmlns="http://www.w3.org/2000/svg" xmlns:xlink="http://www.w3.org/1999/xlink">
    <!-- Generator: sketchtool 59.1 (101010) - https://sketch.com -->
    <title>1CDF10EC-880C-4608-A0D2-EB441B522595</title>
    <desc>Created with sketchtool.</desc>
    <g id="Page-1" stroke="none" stroke-width="1" fill="none" fill-rule="evenodd">
        <g id="VIGOR-Landing-page" transform="translate(-341.000000, -4243.000000)" fill="#FFFFFF" fill-rule="nonzero">
            <g id="Group-18" transform="translate(332.000000, 4243.000000)">
                <g id="Group-17" transform="translate(9.000000, 0.000000)">
                    <g id="eoswriter">
                        <g id="Group">
                            <path d="M26.4816,0 C27.216,0 27.864,0.4752 28.1232,1.1664 L28.1232,1.1664 L36.5472,24.6672 C36.7632,25.1424 36.72,25.704 36.504,26.1792 L36.504,26.1792 L19.3536,53.8704 L19.3536,34.4736 C20.2608,34.1712 20.8656,33.3072 20.8656,32.3568 C20.8656,31.1472 19.872,30.1536 18.6192,30.1536 C17.3664,30.1536 16.3728,31.1472 16.3728,32.3568 C16.3728,33.2208 16.848,33.9984 17.5824,34.344 L17.5824,34.344 L17.5824,53.8704 L0.6912,26.6976 C0.3888,26.2224 0.3456,25.6608 0.5616,25.1424 L0.5616,25.1424 L9.4608,1.1232 C9.72,0.432 10.368,0 11.1024,0 L11.1024,0 Z M18.5328,5.6592 L14.3424,11.448 L12.5712,19.9584 L18.576,23.5872 L24.5808,19.9584 L22.8096,11.4048 L18.5328,5.6592 Z M22.248,13.0896 L23.5872,19.6128 L19.1808,22.248 L22.248,13.0896 Z M14.8608,13.0464 L17.928,22.2048 L13.5216,19.5696 L14.8608,13.0464 Z M18.5328,7.1712 L21.7728,11.6208 L18.5328,21.384 L15.2928,11.6208 L18.5328,7.1712 Z" id="Combined-Shape"></path>
                        </g>
                        <g id="Group" transform="translate(45.360000, 19.440000)">
                            <polygon id="Path" points="10.1952 2.8512 2.4192 2.8512 2.4192 6.3936 9.3312 6.3936 9.3312 8.5536 2.4192 8.5536 2.4192 12.2256 10.2816 12.2256 10.2816 14.3856 0 14.3856 0 0.648 10.1952 0.648"></polygon>
                            <path d="M25.9632,10.2384 C25.6176,11.1024 25.0992,11.88 24.4512,12.528 C23.8032,13.176 23.0688,13.6944 22.1616,14.0832 C21.2976,14.472 20.304,14.6448 19.2672,14.6448 C18.2304,14.6448 17.2368,14.472 16.3728,14.0832 C15.5088,13.6944 14.7312,13.2192 14.1264,12.5712 C13.4784,11.9232 13.0032,11.1888 12.6576,10.3248 C12.312,9.4608 12.1392,8.5536 12.1392,7.56 C12.1392,6.5664 12.312,5.6592 12.6576,4.7952 C13.0032,3.9312 13.5216,3.1536 14.1696,2.5056 C14.8176,1.8576 15.552,1.3392 16.4592,0.9504 C17.3232,0.5616 18.3168,0.3888 19.3536,0.3888 C20.3904,0.3888 21.384,0.5616 22.248,0.9504 C23.112,1.3392 23.8896,1.8144 24.4944,2.4624 C25.1424,3.1104 25.6176,3.8448 25.9632,4.7088 C26.3088,5.5728 26.4816,6.48 26.4816,7.4736 C26.4816,8.4672 26.3088,9.3744 25.9632,10.2384 Z M23.6304,5.6592 C23.4144,5.0544 23.0688,4.536 22.68,4.104 C22.248,3.672 21.7728,3.3264 21.2112,3.024 C20.6496,2.7648 20.0016,2.6352 19.3104,2.6352 C18.6192,2.6352 18.0144,2.7648 17.4528,3.024 C16.8912,3.2832 16.416,3.6288 15.984,4.0608 C15.5952,4.4928 15.2496,5.0112 15.0336,5.616 C14.8176,6.2208 14.688,6.8256 14.688,7.5168 C14.688,8.1648 14.8176,8.8128 15.0336,9.4176 C15.2496,10.0224 15.5952,10.5408 15.984,10.9728 C16.416,11.4048 16.8912,11.7504 17.4528,12.0528 C18.0144,12.312 18.6624,12.4416 19.3536,12.4416 C20.0448,12.4416 20.6496,12.312 21.2112,12.0528 C21.7728,11.7936 22.248,11.448 22.68,11.016 C23.0688,10.584 23.4144,10.0656 23.6304,9.4608 C23.8464,8.856 23.976,8.2512 23.976,7.56 C23.976,6.8688 23.8464,6.264 23.6304,5.6592 Z" id="Shape"></path>
                            <path d="M31.0176,4.968 C31.104,5.184 31.2768,5.3568 31.536,5.5296 C31.7952,5.7024 32.0976,5.8752 32.5296,6.0048 C32.9616,6.1344 33.48,6.3072 34.1712,6.4368 C34.9056,6.6096 35.5536,6.8256 36.072,7.0416 C36.6336,7.2576 37.1088,7.5168 37.4544,7.8624 C37.8432,8.1648 38.1024,8.5536 38.2752,8.9856 C38.448,9.4176 38.5776,9.8928 38.5776,10.4976 C38.5776,11.1456 38.448,11.7504 38.232,12.2256 C37.9728,12.744 37.6704,13.176 37.2384,13.5216 C36.8064,13.8672 36.288,14.1264 35.6832,14.3424 C35.0784,14.5152 34.4304,14.6016 33.696,14.6016 C32.616,14.6016 31.6224,14.4288 30.672,14.04 C29.7216,13.6944 28.8144,13.1328 27.9936,12.3984 L29.4624,10.6704 C30.1104,11.232 30.8016,11.7072 31.4928,12.0096 C32.184,12.312 32.9616,12.4848 33.8256,12.4848 C34.56,12.4848 35.1648,12.312 35.5968,12.0096 C36.0288,11.7072 36.2448,11.2752 36.2448,10.7136 C36.2448,10.4544 36.2016,10.2384 36.1152,10.0656 C36.0288,9.8496 35.856,9.6768 35.64,9.504 C35.424,9.3312 35.0784,9.2016 34.6896,9.0288 C34.3008,8.8992 33.7824,8.7264 33.1344,8.5968 C32.4,8.424 31.752,8.2512 31.1904,8.0352 C30.6288,7.8192 30.1536,7.56 29.7648,7.2576 C29.376,6.9552 29.0736,6.5664 28.8576,6.1344 C28.6416,5.7024 28.5552,5.1408 28.5552,4.4928 C28.5552,3.888 28.6848,3.3264 28.9008,2.8512 C29.1168,2.376 29.4624,1.944 29.8512,1.5984 C30.24,1.2528 30.7584,0.9936 31.32,0.7776 C31.8816,0.6048 32.5296,0.4752 33.2208,0.4752 C34.2144,0.4752 35.1216,0.6048 35.9424,0.9072 C36.7632,1.2096 37.4976,1.6416 38.232,2.2032 L36.936,4.0176 C36.288,3.5424 35.6832,3.1968 35.0784,2.9808 C34.4736,2.7216 33.8256,2.6352 33.2208,2.6352 C32.5296,2.6352 31.968,2.808 31.5792,3.1104 C31.1904,3.4128 30.9744,3.8016 30.9744,4.2768 C30.888,4.536 30.9312,4.752 31.0176,4.968 Z" id="Path"></path>
                            <polygon id="Path" points="42.0336 0.648 43.632 0.648 44.496 12.096 51.3216 0.6048 52.6176 0.6048 53.352 12.096 60.3504 0.648 62.0784 0.648 53.4384 14.5152 52.0992 14.5152 51.3216 3.4128 44.5824 14.5152 43.2432 14.5152"></polygon>
                            <path d="M63.0288,4.2336 L64.5408,4.2336 L63.8496,6.8688 C64.152,6.4368 64.4976,6.0048 64.8432,5.6592 C65.1888,5.3136 65.5776,5.0112 65.9664,4.752 C66.3552,4.4928 66.7872,4.32 67.2624,4.1904 C67.6944,4.0608 68.1696,4.0176 68.688,4.0608 L68.256,5.7024 L68.1696,5.7024 C67.608,5.7024 67.0896,5.7888 66.528,6.0048 C65.9664,6.2208 65.4912,6.5232 65.016,6.912 C64.5408,7.3008 64.152,7.776 63.7632,8.3808 C63.4176,8.9856 63.1152,9.6336 62.8992,10.4112 L61.8192,14.4288 L60.3072,14.4288 L63.0288,4.2336 Z" id="Path"></path>
                            <path d="M70.632,4.2336 L72.144,4.2336 L69.4224,14.3856 L67.9104,14.3856 L70.632,4.2336 Z M71.5824,0.3456 L73.3104,0.3456 L72.8784,2.0304 L71.1504,2.0304 L71.5824,0.3456 Z" id="Shape"></path>
                            <path d="M74.304,14.0832 C73.8288,13.7376 73.6128,13.2624 73.6128,12.5712 C73.6128,12.3984 73.6128,12.2256 73.656,12.0096 C73.6992,11.8368 73.6992,11.664 73.7424,11.4912 L75.3408,5.5728 L73.9584,5.5728 L74.304,4.2336 L75.7296,4.2336 L76.5504,1.1664 L78.0624,1.1664 L77.2416,4.2336 L80.4384,4.2336 L80.0928,5.5728 L76.896,5.5728 L75.3408,11.4048 C75.2976,11.5344 75.2976,11.664 75.2976,11.7936 C75.2976,11.9232 75.2976,12.0528 75.2976,12.1392 C75.2976,12.4848 75.4272,12.744 75.6864,12.9168 C75.9456,13.0896 76.2912,13.176 76.7232,13.176 C77.1552,13.176 77.6736,13.0896 78.192,12.8736 L77.8032,14.256 C77.544,14.3424 77.2848,14.4288 77.0256,14.472 C76.7664,14.5152 76.5072,14.5584 76.2048,14.5584 C75.384,14.5584 74.7792,14.4288 74.304,14.0832 Z" id="Path"></path>
                            <path d="M81.9936,10.0656 C81.9936,10.152 81.9936,10.1952 81.9936,10.2816 C81.9936,11.232 82.2528,11.9664 82.8144,12.528 C83.376,13.0896 84.1104,13.3488 85.0608,13.3488 C85.7088,13.3488 86.2704,13.2624 86.7888,13.0464 C87.264,12.8304 87.7392,12.528 88.2144,12.1824 L88.992,13.176 C88.4736,13.608 87.912,13.9536 87.3072,14.256 C86.6592,14.5584 85.9248,14.688 85.0176,14.688 C84.3696,14.688 83.7216,14.6016 83.16,14.3856 C82.5984,14.1696 82.1232,13.8672 81.7344,13.5216 C81.3456,13.1328 81.0432,12.7008 80.8272,12.1392 C80.6112,11.6208 80.4816,11.016 80.4816,10.368 C80.4816,9.5904 80.6112,8.8128 80.9136,8.0784 C81.216,7.344 81.6048,6.6528 82.1664,6.048 C82.6848,5.4432 83.3328,4.968 84.024,4.6224 C84.7584,4.2768 85.536,4.0608 86.4,4.0608 C87.048,4.0608 87.6096,4.1472 88.0848,4.3632 C88.56,4.5792 88.992,4.8384 89.2944,5.2272 C89.64,5.5728 89.856,6.0048 90.0288,6.48 C90.2016,6.9552 90.288,7.4304 90.288,7.992 C90.288,8.3376 90.2448,8.6832 90.2016,8.9856 C90.1152,9.288 90.072,9.6336 89.9424,9.936 L81.9936,9.936 C82.0368,9.8928 81.9936,9.9792 81.9936,10.0656 Z M88.776,8.7264 C88.8624,8.5104 88.8624,8.2512 88.8624,7.9488 C88.8624,7.6032 88.8192,7.2576 88.7328,6.9552 C88.6464,6.6528 88.4736,6.3504 88.2576,6.1344 C88.0416,5.9184 87.7824,5.7024 87.48,5.5728 C87.1776,5.4432 86.7888,5.3568 86.3568,5.3568 C85.8384,5.3568 85.4064,5.4432 84.9312,5.616 C84.456,5.7888 84.1104,6.048 83.7216,6.3504 C83.376,6.6528 83.0736,7.0416 82.8144,7.4304 C82.5552,7.8624 82.3824,8.2944 82.2528,8.7696 L88.776,8.7264 L88.776,8.7264 Z" id="Shape"></path>
                            <path d="M93.7008,4.2336 L95.2128,4.2336 L94.5216,6.8688 C94.824,6.4368 95.1696,6.0048 95.5152,5.6592 C95.8608,5.3136 96.2496,5.0112 96.6384,4.752 C97.0272,4.4928 97.4592,4.32 97.9344,4.1904 C98.3664,4.0608 98.8416,4.0176 99.36,4.0608 L98.928,5.7024 L98.8416,5.7024 C98.28,5.7024 97.7616,5.7888 97.2,6.0048 C96.6384,6.2208 96.1632,6.5232 95.688,6.912 C95.2128,7.3008 94.824,7.776 94.4352,8.3808 C94.0896,8.9856 93.7872,9.6336 93.5712,10.4112 L92.4912,14.4288 L90.9792,14.4288 L93.7008,4.2336 Z" id="Path"></path>
                        </g>
                    </g>
                </g>
            </g>
        </g>
    </g>
</svg>