<?xml version="1.0" encoding="UTF-8"?>
<svg width="83px" height="61px" viewBox="0 0 83 61" version="1.1" xmlns="http://www.w3.org/2000/svg" xmlns:xlink="http://www.w3.org/1999/xlink">
    <!-- Generator: sketchtool 59.1 (101010) - https://sketch.com -->
    <title>75DBE13C-6F01-4148-B91B-2F6FB9F85F1D</title>
    <desc>Created with sketchtool.</desc>
    <g id="Page-1" stroke="none" stroke-width="1" fill="none" fill-rule="evenodd">
        <g id="VIGOR-Landing-page" transform="translate(-993.000000, -4437.000000)" fill="#FFFFFF">
            <g id="Group-18" transform="translate(332.000000, 4243.000000)">
                <g id="Group-14" transform="translate(0.000000, 194.000000)">
                    <g id="Group-3" transform="translate(661.000000, 0.000000)">
                        <path d="M7.1369,43.3133 L18.6539,60.4878 L32.8944,60.4878 L26.1404,50.1388 L69.0794,50.1388 L69.0794,35.6068 L7.1369,35.6068 L7.1369,43.3133 Z M81.4639,8.8168 L81.0049,8.8168 C79.8979,8.8168 78.9304,9.0588 78.1004,9.5428 C77.2709,10.0273 76.5689,10.7238 75.9964,11.6323 L75.9964,9.1428 L70.6314,9.1428 L70.6314,24.3468 L75.9964,24.3468 L75.9964,17.8263 C75.9964,16.4043 76.3074,15.3223 76.9299,14.5813 C77.5519,13.8403 78.4854,13.4698 79.7304,13.4698 C80.5604,13.4698 81.3309,13.6478 82.0424,14.0033 L82.0424,8.8758 C81.8244,8.8368 81.6319,8.8168 81.4639,8.8168 L81.4639,8.8168 Z M57.9354,14.5368 C58.0734,13.7468 58.4044,13.1343 58.9284,12.6988 C59.4519,12.2648 60.1284,12.0473 60.9589,12.0473 C61.7489,12.0473 62.4204,12.2748 62.9739,12.7288 C63.5269,13.1833 63.8929,13.7858 64.0704,14.5368 L57.9354,14.5368 Z M66.8859,10.8318 C66.1749,10.1013 65.3054,9.5428 64.2779,9.1573 C63.2504,8.7723 62.0944,8.5793 60.8104,8.5793 C59.5059,8.5793 58.3354,8.7723 57.2979,9.1573 C56.2609,9.5428 55.3764,10.0913 54.6459,10.8028 C53.9144,11.5138 53.3514,12.3783 52.9564,13.3958 C52.5609,14.4133 52.3634,15.5543 52.3634,16.8193 C52.3634,18.0443 52.5709,19.1508 52.9859,20.1383 C53.4009,21.1268 53.9884,21.9758 54.7494,22.6873 C55.5099,23.3988 56.4239,23.9473 57.4909,24.3323 C58.5579,24.7178 59.7329,24.9098 61.0179,24.9098 C65.2069,24.9098 67.8244,23.1718 68.8719,19.6938 L63.6854,19.6938 C63.0924,20.6423 62.2129,21.1163 61.0474,21.1163 C58.8739,21.1163 57.7874,19.9608 57.7874,17.6488 L69.0794,17.6488 L69.0794,17.0858 C69.0794,15.7618 68.8914,14.5718 68.5164,13.5143 C68.1409,12.4573 67.5974,11.5633 66.8859,10.8318 L66.8859,10.8318 Z M35.1619,31.9343 L41.1784,31.9343 L53.3889,9.1428 L47.2244,9.1428 L43.2824,16.9373 L39.2219,9.1428 L32.9984,9.1428 L40.3484,22.2723 L35.1619,31.9343 Z M14.2739,19.4273 L5.8094,19.4273 L5.8094,-0.0002 L0.0004,-0.0002 L0.0004,24.3468 L14.2739,24.3468 L14.2739,19.4273 Z M21.0094,15.3818 C21.1874,14.9768 21.4289,14.6158 21.7354,14.2998 C22.0419,13.9838 22.4074,13.7368 22.8324,13.5588 C23.2569,13.3813 23.7164,13.2918 24.2104,13.2918 C24.6849,13.2918 25.1339,13.3813 25.5589,13.5588 C25.9834,13.7368 26.3489,13.9838 26.6554,14.2998 C26.9614,14.6158 27.2089,14.9868 27.3969,15.4108 C27.5844,15.8363 27.6779,16.2853 27.6779,16.7598 C27.6779,17.2338 27.5844,17.6783 27.3969,18.0938 C27.2089,18.5083 26.9614,18.8743 26.6554,19.1898 C26.3489,19.5063 25.9834,19.7533 25.5589,19.9308 C25.1339,20.1088 24.6849,20.1978 24.2104,20.1978 C23.7164,20.1978 23.2569,20.1088 22.8324,19.9308 C22.4074,19.7533 22.0419,19.5063 21.7354,19.1898 C21.4289,18.8743 21.1874,18.5038 21.0094,18.0783 C20.8319,17.6543 20.7429,17.1948 20.7429,16.7003 C20.7429,16.2263 20.8319,15.7868 21.0094,15.3818 L21.0094,15.3818 Z M17.3639,22.5098 C18.0554,23.2403 18.8654,23.8088 19.7944,24.2138 C20.7229,24.6183 21.7404,24.8213 22.8474,24.8213 C24.8034,24.8213 26.3544,24.0998 27.5004,22.6573 L27.5004,24.3468 L32.8944,24.3468 L32.8944,9.1428 L27.5004,9.1428 L27.5004,10.6543 C26.2554,9.3308 24.6849,8.6683 22.7879,8.6683 C21.6619,8.6683 20.6339,8.8813 19.7054,9.3053 C18.7764,9.7308 17.9764,10.3088 17.3049,11.0393 C16.6329,11.7708 16.1089,12.6253 15.7339,13.6033 C15.3584,14.5813 15.1709,15.6143 15.1709,16.7003 C15.1709,17.8663 15.3634,18.9433 15.7489,19.9308 C16.1339,20.9193 16.6719,21.7788 17.3639,22.5098 L17.3639,22.5098 Z" id="layer"></path>
                    </g>
                </g>
            </g>
        </g>
    </g>
</svg>