<?xml version="1.0" encoding="UTF-8"?>
<svg width="176px" height="30px" viewBox="0 0 176 30" version="1.1" xmlns="http://www.w3.org/2000/svg" xmlns:xlink="http://www.w3.org/1999/xlink">
    <!-- Generator: sketchtool 59.1 (101010) - https://sketch.com -->
    <title>DF92384F-8250-4E86-9005-AEDB09CD38A9</title>
    <desc>Created with sketchtool.</desc>
    <g id="Page-1" stroke="none" stroke-width="1" fill="none" fill-rule="evenodd">
        <g id="VIGOR-Landing-page" transform="translate(-332.000000, -4453.000000)" fill="#FFFFFF" fill-rule="nonzero">
            <g id="Group-18" transform="translate(332.000000, 4243.000000)">
                <g id="Group-14" transform="translate(0.000000, 194.000000)">
                    <g id="liquidapps_logo" transform="translate(0.000000, 16.000000)">
                        <path d="M17.9691011,14.785815 C17.9691011,12.9479138 16.4791878,11.4580004 14.6412865,11.4580004 C12.8033853,11.4580004 11.3134719,12.9479138 11.3134719,14.785815 L11.3134719,14.785815 C11.3154836,16.6204442 12.8011722,18.1077691 14.6357981,18.1118002 L17.9617832,18.1118002 L17.9617832,14.789474 L17.9617832,14.789474 L17.9691011,14.785815 Z" id="Path"></path>
                        <path d="M29.293551,29.4234426 L29.293551,14.8004508 C29.2954654,9.81880752 26.7583311,5.17969298 22.5629123,2.4935741 L22.542788,7.66001084 L22.5190049,13.8601008 L22.5757186,22.6964639 L15.1645163,22.6964639 C14.9925457,22.7074408 14.8187456,22.7165881 14.643116,22.7165881 C11.3979575,22.7168509 8.48036641,20.7391481 7.27878387,17.724641 C6.07720133,14.7101339 6.83432225,11.2676908 9.18984328,9.03552269 C11.5453643,6.8033546 15.0235188,6.23231342 17.9691011,7.59414974 L17.9965433,0.563478227 C12.5198577,-0.717390868 6.79396411,1.25679129 3.27041491,5.64077482 C-0.253134298,10.0247583 -0.949604142,16.0412508 1.47920028,21.1142795 C3.9080047,26.1873081 9.03144966,29.4174109 14.6559223,29.4216132 L29.2917204,29.4216132 L29.293551,29.4234426 Z" id="Path"></path>
                        <polygon id="Path" points="41.8949721 20.5632963 41.8949721 9.44740768 43.5177162 9.44740768 43.5177162 19.0777628 47.3833964 19.0777628 47.3833964 20.5632963"></polygon>
                        <path d="M54.1048867,11.2805414 L54.1048867,9.45106663 L55.6672581,9.45106663 L55.6672581,11.2805414 L54.1048867,11.2805414 Z M54.1048867,20.5632963 L54.1048867,12.2574809 L55.6672581,12.2574809 L55.6672581,20.5779321 L54.1048867,20.5632963 Z" id="Shape"></path>
                        <path d="M70.1475509,23.3422685 L70.1475509,19.4070683 L70.1091319,19.4070683 C69.4544362,20.283495 68.4184798,20.791944 67.3246713,20.7736859 C64.9068056,20.7858106 62.9369092,18.8355722 62.9247283,16.4177065 C62.9126598,13.9998408 64.8628982,12.0299444 67.2807639,12.0178197 C68.6016447,12.0178197 69.7889738,12.7075317 70.2243888,13.3533363 L70.2518309,13.3533363 L70.2518309,12.2574809 L71.6952865,12.2574809 L71.6952865,23.3569043 L70.1475509,23.3422685 Z M70.2920794,16.4341718 C70.2920794,14.7656908 69.0443776,13.44481 67.3923619,13.44481 C65.8153546,13.44481 64.553017,14.7053182 64.553017,16.3884349 C64.553017,18.0715517 65.8153546,19.3466956 67.4380987,19.3466956 C69.0296535,19.3286034 70.3063034,18.0257658 70.2920794,16.4341718 L70.2920794,16.4341718 Z" id="Shape"></path>
                        <path d="M85.3779283,20.5632963 L85.3779283,19.6631948 L85.3486567,19.6631948 C84.9425133,20.369372 83.9966748,20.7736859 82.9008195,20.7736859 C81.1134226,20.7736859 79.4248174,19.8132117 79.4248174,16.8842226 L79.4248174,12.2574809 L80.9871888,12.2574809 L80.9871888,16.7689657 C80.9871888,18.5124551 81.6329934,19.3521841 83.0599838,19.3521841 C84.4869741,19.3521841 85.2370587,18.3459729 85.2370587,16.7396941 L85.2370587,12.2574809 L86.7994302,12.2574809 L86.7994302,20.5779321 L85.3779283,20.5632963 Z" id="Path"></path>
                        <path d="M94.5417674,11.2805414 L94.5417674,9.45106663 L96.1041388,9.45106663 L96.1041388,11.2805414 L94.5417674,11.2805414 Z M94.5417674,20.5632963 L94.5417674,12.2574809 L96.1041388,12.2574809 L96.1041388,20.5779321 L94.5417674,20.5632963 Z" id="Shape"></path>
                        <path d="M110.042907,20.5632963 L110.042907,19.6631948 L110.013635,19.6631948 C109.547119,20.4297447 108.70739,20.8340586 107.520061,20.8340586 C104.997216,20.8340586 103.34337,18.8966448 103.34337,16.3737991 C103.34337,13.880225 105.041123,11.9409818 107.474324,11.9409818 C108.394736,11.9081006 109.285603,12.2687055 109.923991,12.9325571 L109.923991,9.45655505 L112.417565,9.45655505 L112.417565,20.5724437 L110.042907,20.5632963 Z M110.059372,16.3555044 C110.059372,15.1895132 109.11415,14.2442905 107.948158,14.2442905 C106.782167,14.2442905 105.836945,15.1895132 105.836945,16.3555044 C105.836945,17.617842 106.72424,18.5051372 107.926205,18.5051372 C109.078075,18.5296661 110.032394,17.6170887 110.059372,16.4652729 C110.061202,16.4311472 110.061202,16.396948 110.059372,16.3628223 L110.059372,16.3555044 Z" id="Shape"></path>
                        <path d="M127.212528,20.5632963 L126.663685,18.9570175 L122.803494,18.9570175 L122.208914,20.5632963 L119.175645,20.5632963 L123.637734,9.44740768 L125.877011,9.44740768 L130.298852,20.5632963 L127.212528,20.5632963 Z M124.779326,12.9179213 L124.735419,12.9032855 L123.593827,16.7031046 L125.920919,16.7031046 L124.779326,12.9179213 Z" id="Shape"></path>
                        <path d="M137.051443,23.3422685 L137.051443,12.2282093 L139.395,12.2282093 L139.395,13.1429467 L139.446225,13.1429467 C140.07931,12.3523773 141.048304,11.9068709 142.060545,11.9409818 C144.438862,11.9409818 146.11649,13.880225 146.11649,16.4780792 C146.11649,18.8563964 144.448009,20.8486944 142.060545,20.8486944 C141.083605,20.8486944 140.23107,20.5486605 139.550506,19.8132117 L139.550506,23.3422685 L137.051443,23.3422685 Z M143.613769,16.4030707 C143.610236,15.2373246 142.663284,14.2946667 141.497534,14.2964305 C140.331784,14.2981993 139.387692,15.2437224 139.387692,16.4094739 C139.387692,17.5752254 140.331784,18.5207485 141.497534,18.5225173 C142.663284,18.5242811 143.610236,17.5816232 143.613769,16.4158771 L143.613769,16.4030707 Z" id="Shape"></path>
                        <path d="M153.245954,23.3422685 L153.245954,12.2282093 L155.587681,12.2282093 L155.587681,13.1429467 L155.633418,13.1429467 C156.266893,12.3518511 157.236691,11.9062866 158.249567,11.9409818 C160.627884,11.9409818 162.305513,13.880225 162.305513,16.4780792 C162.305513,18.8563964 160.637032,20.8486944 158.249567,20.8486944 C157.272628,20.8486944 156.420092,20.5486605 155.741357,19.8132117 L155.741357,23.3422685 L153.245954,23.3422685 Z M159.810109,16.4030707 C159.807081,15.2371446 158.860258,14.2940034 157.694329,14.2955158 C156.5284,14.2970318 155.584029,15.2426291 155.584029,16.4085592 C155.584029,17.5744892 156.5284,18.5200865 157.694329,18.5216025 C158.860258,18.5231149 159.807081,17.5799737 159.810109,16.4140476 L159.810109,16.4030707 Z" id="Shape"></path>
                        <path d="M172.982327,14.569937 C172.967692,14.0906146 172.616432,13.9405977 172.217607,13.9405977 C171.818781,13.9405977 171.496794,14.1802589 171.496794,14.4894401 C171.496794,14.9413204 171.901108,15.1663458 173.059165,15.4663797 C175.040486,15.9914389 175.686291,16.7890899 175.686291,18.0056906 C175.686291,19.7473506 174.184292,20.843206 172.292615,20.843206 C170.400938,20.843206 169.083717,19.7821106 168.900769,18.0861875 L171.379707,18.0861875 C171.454716,18.6112468 171.829758,18.850908 172.325546,18.850908 C172.760961,18.850908 173.196376,18.596611 173.196376,18.2051034 C173.196376,17.7404168 172.910978,17.4989261 171.665106,17.1074185 C169.56121,16.4616139 169.006879,15.6438387 169.006879,14.6595813 C169.006879,13.013054 170.552785,11.9391523 172.235902,11.9391523 C174.037934,11.9391523 175.314908,12.9307276 175.435653,14.5681075 L172.982327,14.569937 Z" id="Path"></path>
                    </g>
                </g>
            </g>
        </g>
    </g>
</svg>