<?xml version="1.0" encoding="UTF-8"?>
<svg width="116px" height="54px" viewBox="0 0 116 54" version="1.1" xmlns="http://www.w3.org/2000/svg" xmlns:xlink="http://www.w3.org/1999/xlink">
    <!-- Generator: sketchtool 59.1 (101010) - https://sketch.com -->
    <title>D736AF51-99FF-41AD-8725-5C6C5A9621FB</title>
    <desc>Created with sketchtool.</desc>
    <g id="Page-1" stroke="none" stroke-width="1" fill="none" fill-rule="evenodd">
        <g id="VIGOR-Landing-page" transform="translate(-782.000000, -2914.000000)">
            <g id="Group-10" transform="translate(205.000000, 2881.000000)">
                <g id="01__assets-/-logos-/-vigor-01__assets-/-logos-/-vigor-copy" transform="translate(577.000000, 33.000000)">
                    <g id="logo-vigor">
                        <path d="M16.80966,1.03775 L6.64216,16.68135 C6.26136,17.28405 6.16896,18.02605 6.39086,18.70365 L17.19606,50.80705 C17.26676,51.02335 17.57266,51.02405 17.64406,50.80775 L28.29736,18.71555 C28.52486,18.03095 28.43106,17.28055 28.04256,16.67295 L18.03326,1.03425 C17.74696,0.58695 17.09316,0.58835 16.80966,1.03775" id="Fill-1" fill="#FFFFFF"></path>
                        <path d="M29.2873,20.37252 L18.2616,53.31452 L34.6521,27.61682 C34.7648,27.43972 34.7641,27.21292 34.65,27.03722 L30.2449,20.25072 C30.0013,19.87482 29.4301,19.94762 29.2873,20.37252" id="Fill-4" fill="#1E212E"></path>
                        <path d="M5.44901,20.23238 L16.47471,53.17368 L0.08421,27.47668 C-0.02849,27.29958 -0.02779,27.07208 0.08631,26.89708 L4.49141,20.11058 C4.73501,19.73398 5.30621,19.80678 5.44901,20.23238" id="Fill-7" fill="#1E212E"></path>
                        <polygon id="Fill-9" fill="#FFFFFF" points="45.11185 20.2146 48.75115 20.2146 52.66835 30.7671 56.58555 20.2146 60.13875 20.2146 54.08095 35.3059 51.16965 35.3059"></polygon>
                        <polygon id="Fill-11" fill="#FFFFFF" points="62.6024 35.19803 65.8994 35.19803 65.8994 20.21453 62.6024 20.21453"></polygon>
                        <path d="M68.2829,27.74919 L68.2829,27.70649 C68.2829,23.44699 71.6002,19.95819 76.1383,19.95819 C78.8354,19.95819 80.4615,20.68549 82.0246,22.01339 L79.9484,24.51729 C78.7927,23.55409 77.7651,22.99759 76.0312,22.99759 C73.6344,22.99759 71.729,25.11649 71.729,27.66379 L71.729,27.70649 C71.729,30.44699 73.612,32.45879 76.2664,32.45879 C77.4655,32.45879 78.5351,32.15919 79.3702,31.55929 L79.3702,29.41939 L76.0529,29.41939 L76.0529,26.57179 L82.5601,26.57179 L82.5601,33.07899 C81.018,34.38449 78.8998,35.45549 76.16,35.45549 C71.4931,35.45549 68.2829,32.18019 68.2829,27.74919" id="Fill-13" fill="#FFFFFF"></path>
                        <path d="M96.84619,27.74919 L96.84619,27.70649 C96.84619,25.13819 94.96249,22.99759 92.30879,22.99759 C89.65439,22.99759 87.81339,25.09479 87.81339,27.66379 L87.81339,27.70649 C87.81339,30.27479 89.69639,32.41539 92.35079,32.41539 C95.00519,32.41539 96.84619,30.31819 96.84619,27.74919 M84.36729,27.74919 L84.36729,27.70649 C84.36729,23.44699 87.72799,19.95819 92.35079,19.95819 C96.97499,19.95819 100.29229,23.40429 100.29229,27.66379 L100.29229,27.70649 C100.29229,31.96599 96.93159,35.45549 92.30879,35.45549 C87.68459,35.45549 84.36729,32.00869 84.36729,27.74919" id="Fill-14" fill="#FFFFFF"></path>
                        <path d="M109.16248,27.49285 C110.76828,27.49285 111.68808,26.63605 111.68808,25.37395 L111.68808,25.33055 C111.68808,23.91795 110.70388,23.19065 109.09808,23.19065 L105.82278,23.19065 L105.82278,27.49285 L109.16248,27.49285 Z M102.52718,20.21495 L109.37668,20.21495 C111.28138,20.21495 112.75908,20.74975 113.74328,21.73395 C114.57768,22.56975 115.02778,23.74645 115.02778,25.15905 L115.02778,25.20245 C115.02778,27.62095 113.72228,29.14065 111.81688,29.84695 L115.47718,35.19845 L111.62438,35.19845 L108.41348,30.40345 L105.82278,30.40345 L105.82278,35.19845 L102.52718,35.19845 L102.52718,20.21495 Z" id="Fill-15" fill="#FFFFFF"></path>
                    </g>
                </g>
            </g>
        </g>
    </g>
</svg>