<?xml version="1.0" encoding="UTF-8"?>
<svg width="146px" height="38px" viewBox="0 0 146 38" version="1.1" xmlns="http://www.w3.org/2000/svg" xmlns:xlink="http://www.w3.org/1999/xlink">
    <!-- Generator: sketchtool 59.1 (101010) - https://sketch.com -->
    <title>5E2166DB-B39C-4A99-91BB-660BD1CDF426</title>
    <desc>Created with sketchtool.</desc>
    <g id="Page-1" stroke="none" stroke-width="1" fill="none" fill-rule="evenodd">
        <g id="VIGOR-Landing-page" transform="translate(-754.000000, -4251.000000)" fill="#FFFFFF">
            <g id="Group-18" transform="translate(332.000000, 4243.000000)">
                <g id="Group-17" transform="translate(9.000000, 0.000000)">
                    <path d="M522.397417,34.6427954 L522.144028,34.9571128 C521.826219,35.3761663 521.334347,35.6105966 520.668082,35.6603671 C520.113425,35.7103556 519.678411,35.5982811 519.363256,35.3238164 C519.047919,35.0493155 518.826303,34.6578719 518.698591,34.1489771 C518.481883,33.3810937 518.466106,32.5132333 518.650821,31.5454321 C518.835537,30.5780306 519.107503,29.820065 519.467156,29.2711358 C519.82659,28.7227878 520.174501,28.3636042 520.511141,28.1938394 C520.847309,28.0245105 521.209252,27.9346692 521.596497,27.9245335 C522.164968,27.9245335 522.534691,28.0120134 522.705411,28.1863193 C522.875621,28.3610612 523.022565,28.5631224 523.145661,28.7923939 L522.397417,34.6427954 Z M523.560935,25.5455373 L523.068153,25.1116252 C522.778664,24.8323652 522.245784,24.6727361 521.469221,24.632847 C520.752024,24.6027304 519.984041,24.7326061 519.165234,25.0217839 C518.346391,25.3111071 517.562084,25.7474168 516.812387,26.3310765 C516.06229,26.9146998 515.462118,27.6976597 515.011652,28.6801377 C514.560969,29.6627973 514.274606,30.6327782 514.152129,31.5904436 C514.062843,32.2887208 514.055172,33.0619809 514.129626,33.9097878 C514.203861,34.7578126 514.462231,35.5756845 514.904662,36.3635851 C515.346911,37.15174 515.9537,37.7877132 516.724374,38.2712141 C517.494938,38.7552964 518.446038,38.9819885 519.576873,38.9522352 C520.18737,38.9423537 521.84436,38.9670937 521.84436,38.9670937 L526.337309,38.9670937 L529.041374,17.8245985 L524.548425,17.8245985 L523.560935,25.5455373 Z M535.389553,29.7649178 C535.435177,29.4857304 535.61135,29.1215698 535.917671,28.6726176 C536.223774,28.2238107 536.533657,27.9046979 536.847176,27.7151338 C537.160877,27.5257514 537.496863,27.4383078 537.855498,27.453348 C538.213914,27.4682428 538.480427,27.54813 538.654964,27.6925373 C538.829246,27.8373078 538.97968,28.0719197 539.105829,28.3957553 C539.231688,28.7202084 539.298289,29.0343442 539.305014,29.3385621 C539.311703,29.6429618 539.308068,29.9695946 539.29389,30.3186424 L535.272928,30.3186424 L535.389553,29.7649178 Z M538.371473,34.7925067 C538.281169,35.0219962 538.152875,35.2690688 537.987245,35.5332524 C537.821434,35.7975813 537.60269,36.0195143 537.331015,36.198979 C537.059158,36.3784436 536.784356,36.4831797 536.506355,36.5132964 C536.176259,36.5531855 535.881607,36.4958948 535.622184,36.3411702 C535.362614,36.1864818 535.154086,35.8723824 534.996491,35.3983633 C534.83864,34.9248164 534.762551,34.4684532 534.76804,34.0293824 C534.773094,33.5904933 534.780946,33.3112696 534.791416,33.1914933 C534.801523,33.071717 534.820681,32.9423862 534.848674,32.8024111 L543.408209,32.8024111 L543.567513,30.9619904 C543.637677,30.2539771 543.558134,29.4458413 543.329247,28.5381644 C543.099925,27.6304512 542.654004,26.8696883 541.991411,26.2562753 C541.328637,25.642717 540.65143,25.2413193 539.959863,25.0517189 C539.26826,24.8623002 538.695244,24.7576004 538.240998,24.7375832 C537.148298,24.7074302 536.100387,24.9394627 535.098137,25.4332811 C534.095705,25.9270994 533.330521,26.4534321 532.802076,27.0118795 C532.273776,27.5707629 531.84625,28.1339694 531.519789,28.7027342 C531.193109,29.2711358 530.932849,29.8573384 530.739008,30.460652 C530.544913,31.0643289 530.41033,31.6604493 530.335076,32.2486864 C530.192313,33.2862753 530.203329,34.2116444 530.368486,35.0243576 C530.533352,35.8374704 530.841164,36.5482084 531.291411,37.1566444 C531.741477,37.7650803 532.393963,38.2414971 533.248433,38.5855315 C534.103158,38.9296386 535.036044,39.1168413 536.047674,39.1465946 C537.007244,39.1866291 537.900795,39.0866883 538.728545,38.8475354 C539.556149,38.6079465 540.217106,38.3013671 540.711887,37.927325 C541.206487,37.5531013 541.646555,37.1094532 542.032273,36.5954359 C542.417701,36.081782 542.681742,35.625673 542.824069,35.2264187 C542.966505,34.8276004 543.082075,34.4781893 543.171397,34.1790937 L538.602141,34.1790937 L538.371473,34.7925067 Z M506.601352,31.5006386 L505.448268,24.7974532 L501.701417,24.7974532 L498.736729,31.5454321 L498.046216,24.7974532 L493.659858,24.7974532 L495.974933,38.9670937 L499.417171,38.9670937 L502.763688,30.9020841 L504.108178,38.9670937 L507.550198,38.9670937 L513.276646,24.7974532 L508.905629,24.7974532 L506.601352,31.5006386 Z M559,24.7974532 L554.41562,24.7974532 L552.01275,27.9844398 L550.257749,24.7974532 L545.368757,24.7974532 L549.173665,31.6053384 L543.206043,38.9670937 L547.98848,38.9670937 L551.031331,35.1814073 L553.029869,38.9670937 L557.903556,38.9670937 L553.931527,31.4407323 L559,24.7974532 Z M486.868703,30.3186424 L482.847705,30.3186424 L482.964366,29.7649178 C483.009918,29.4857304 483.186127,29.1215698 483.492448,28.6726176 C483.79855,28.2238107 484.108434,27.9046979 484.421953,27.7151338 C484.735654,27.5257514 485.07164,27.4383078 485.430274,27.453348 C485.788691,27.4682428 486.05524,27.54813 486.229741,27.6925373 C486.404023,27.8373078 486.554457,28.0719197 486.680606,28.3957553 C486.806464,28.7202084 486.873065,29.0343442 486.879791,29.3385621 C486.886444,29.6429618 486.882845,29.9695946 486.868703,30.3186424 L486.868703,30.3186424 Z M489.566188,26.2562753 C488.903414,25.642717 488.226207,25.2413193 487.53464,25.0517189 C486.843037,24.8623002 486.270021,24.7576004 485.815739,24.7375832 C484.723039,24.7074302 483.675164,24.9394627 482.672914,25.4332811 C481.670482,25.9270994 480.905298,26.4534321 480.376852,27.0118795 C479.848552,27.5707629 479.421026,28.1339694 479.094529,28.7027342 C478.767886,29.2711358 478.507626,29.8573384 478.313785,30.460652 C478.11969,31.0643289 477.985106,31.6604493 477.909853,32.2486864 C477.76709,33.2862753 477.778105,34.2116444 477.943263,35.0243576 C478.108129,35.8374704 478.415941,36.5482084 478.866188,37.1566444 C479.316254,37.7650803 479.96874,38.2414971 480.823246,38.5855315 C481.677934,38.9296386 482.610857,39.1168413 483.622414,39.1465946 C484.582021,39.1866291 485.475572,39.0866883 486.303322,38.8475354 C487.130926,38.6079465 487.791919,38.3013671 488.286664,37.927325 C488.781263,37.5531013 489.221332,37.1094532 489.60705,36.5954359 C489.992514,36.081782 490.256519,35.625673 490.398846,35.2264187 C490.541282,34.8276004 490.656852,34.4781893 490.746174,34.1790937 L486.176918,34.1790937 L485.94625,34.7925067 C485.855946,35.0219962 485.727616,35.2690688 485.562059,35.5332524 C485.39621,35.7975813 485.177467,36.0195143 484.905792,36.198979 C484.633935,36.3784436 484.359133,36.4831797 484.081132,36.5132964 C483.751035,36.5531855 483.456384,36.4958948 483.196997,36.3411702 C482.937391,36.1864818 482.728863,35.8723824 482.571267,35.3983633 C482.413417,34.9248164 482.337328,34.4684532 482.342817,34.0293824 C482.347907,33.5904933 482.355723,33.3112696 482.366193,33.1914933 C482.3763,33.071717 482.395458,32.9423862 482.423451,32.8024111 L490.983022,32.8024111 L491.14229,30.9619904 C491.212454,30.2539771 491.132911,29.4458413 490.904024,28.5381644 C490.674702,27.6304512 490.228781,26.8696883 489.566188,26.2562753 L489.566188,26.2562753 Z M470.531832,30.0247782 L463.348887,17.4804914 L458.971217,17.4804914 L456.155072,39.4992753 L460.850223,39.4992753 L462.528299,26.3785583 L469.867494,39.4371166 L474.086877,39.4371166 L476.895061,17.4804914 L472.136217,17.4804914 L470.531832,30.0247782 Z M435.950981,35.6152103 C435.169692,36.6000497 433.769654,36.8350249 432.709237,36.1591625 L423.340457,30.1880038 L416.441802,37.903675 C419.881095,42.7993901 425.572825,46 432.013271,46 C442.514013,46 451.026542,37.493413 451.026542,27 C451.026542,24.1013556 450.37591,21.3549293 449.214356,18.8969541 L435.950981,35.6152103 Z M424.220157,24.9329962 L433.481328,30.8356023 L446.389412,14.5651358 C442.903186,10.5437839 437.755497,8 432.013271,8 C421.512529,8 413,16.506587 413,27 C413,29.1803862 413.368632,31.2744914 414.045148,33.2248795 L421.071443,25.3665086 C421.872836,24.4704207 423.206309,24.2869235 424.220157,24.9329962 L424.220157,24.9329962 Z" id="newdex"></path>
                </g>
            </g>
        </g>
    </g>
</svg>