<?xml version="1.0" encoding="UTF-8"?>
<svg width="145px" height="39px" viewBox="0 0 145 39" version="1.1" xmlns="http://www.w3.org/2000/svg" xmlns:xlink="http://www.w3.org/1999/xlink">
    <!-- Generator: sketchtool 59.1 (101010) - https://sketch.com -->
    <title>997627F3-E8A6-4D8C-9B4D-BEE4900EB43E</title>
    <desc>Created with sketchtool.</desc>
    <g id="Page-1" stroke="none" stroke-width="1" fill="none" fill-rule="evenodd">
        <g id="VIGOR-Landing-page" transform="translate(-957.000000, -4545.000000)" fill="#FFFFFF" fill-rule="nonzero">
            <g id="Group-18" transform="translate(332.000000, 4243.000000)">
                <g id="Group-15" transform="translate(15.000000, 289.000000)">
                    <g id="scattter-logo" transform="translate(610.000000, 13.000000)">
                        <path d="M19,-7.10542736e-15 C29.4934091,-7.10542736e-15 38,8.73044857 38,19.5 C38,30.2695514 29.4934091,39 19,39 C8.5065909,39 -1.42108547e-14,30.2695514 -1.42108547e-14,19.5 C-1.42108547e-14,8.73044857 8.5065909,-7.10542736e-15 19,-7.10542736e-15 Z M21.4077304,7.87654957 C20.760702,7.87654957 20.1066136,7.98552342 19.463457,8.20041795 C18.8121014,8.41766105 18.1775992,8.7215665 17.577259,9.10367952 C16.9741858,9.48790623 16.4061856,9.94564328 15.8887451,10.4646781 C15.3703936,10.9844176 14.9146726,11.5504239 14.5336524,12.1469617 C14.1549096,12.7404463 13.8540563,13.3729173 13.6392911,14.0276998 C13.4270313,14.6747319 13.3193071,15.3250521 13.3193071,15.9605762 C13.3193071,16.7046044 13.4190601,17.3711297 13.6156055,17.9415984 C13.8139729,18.5177035 14.078159,19.040731 14.4001928,19.4958846 C14.7245041,19.954796 15.0998306,20.3662661 15.5163793,20.719022 C15.9475038,21.0846949 16.3934317,21.4297005 16.8418649,21.7441745 C17.299408,22.0656943 17.7473857,22.3745318 18.1860259,22.6709218 C18.6351423,22.9745924 19.0423534,23.2921197 19.3967272,23.6152834 C19.7620329,23.9490158 20.062203,24.3168025 20.2892664,24.7083098 C20.5293114,25.1225982 20.6509282,25.5984193 20.6509282,26.1216816 C20.6509282,26.8798013 20.4197653,27.4932488 19.9638164,27.9455842 C19.5115115,28.3946316 18.9268858,28.6226781 18.2258815,28.6226781 C17.9088581,28.6226781 17.6255413,28.5813432 17.3841298,28.5000825 C17.1520559,28.4223447 16.9527776,28.3335686 16.7919885,28.2361028 C16.6239114,28.1348792 16.4940958,28.0360043 16.3957092,27.9340762 L16.3957092,27.9340762 L16.2107789,27.7431371 L16.187321,27.6947565 C16.1611301,27.6407393 16.1410884,27.6172535 16.1394942,27.6106776 C16.1235519,27.6153747 16.0754974,27.634633 15.9907756,27.7095525 C15.8766745,27.8100715 15.7678116,27.9383036 15.6664643,28.0900215 C15.5639783,28.2440879 15.4772069,28.4143596 15.4081996,28.596374 C15.3508075,28.7480919 15.3191507,28.8901806 15.3141402,29.0195871 C15.3250721,29.0451865 15.3519462,29.1013175 15.4129823,29.2053593 C15.4637698,29.2917868 15.5783264,29.4352847 15.8370466,29.6273981 C16.0529504,29.7880405 16.3592698,29.9376446 16.7471223,30.0726876 C17.1317865,30.2063215 17.6294129,30.2741953 18.2258815,30.2741953 C18.8039026,30.2741953 19.3523166,30.1612289 19.8560923,29.9385841 C20.3623731,29.7149999 20.8062514,29.4082761 21.1756565,29.0275723 C21.5443784,28.6468684 21.8393103,28.1924193 22.0513425,27.6759679 C22.2624636,27.1606908 22.3697323,26.6073667 22.3697323,26.0312615 C22.3697323,25.4354283 22.27294,24.9034763 22.0818605,24.4497318 C21.8859984,23.9854187 21.622951,23.556804 21.300234,23.1770395 C20.970229,22.7890551 20.5903475,22.4290187 20.1706104,22.1065595 C19.7381195,21.7744711 19.2887752,21.4470799 18.8348761,21.1335453 C18.3734614,20.814609 17.917057,20.4895663 17.4784169,20.1678116 C17.0211016,19.8324353 16.6072859,19.4611257 16.2485849,19.0646864 C15.8791797,18.6572088 15.5783264,18.1973581 15.3544514,17.6978164 C15.1251105,17.1865318 15.0089597,16.6022066 15.0089597,15.9605762 C15.0089597,15.3576972 15.1123567,14.7707886 15.31619,14.215116 C15.5159238,13.6707165 15.7837539,13.1561439 16.1117091,12.6857246 C16.4376146,12.2185932 16.819318,11.7850464 17.2465708,11.397062 C17.6713184,11.0111913 18.1181574,10.6776938 18.5747894,10.4052592 C19.0325603,10.1325898 19.4951138,9.91699068 19.9496961,9.76409853 C20.4163491,9.60744865 20.8574944,9.52806684 21.2610615,9.52806684 C21.9554611,9.52806684 22.4662969,9.72088475 22.7794486,10.100884 C23.0796187,10.4646781 23.2315258,10.9555301 23.2315258,11.5602879 C23.2315258,12.1309914 23.0668649,12.7211881 22.7420982,13.3146727 C22.4300852,13.8834973 22.0397274,14.4116916 21.5810456,14.8842247 C21.123047,15.3567578 20.6261037,15.7520228 20.1038806,16.0582769 C19.5575164,16.3783875 19.0441753,16.5409088 18.5777501,16.5409088 C18.4240211,16.5409088 18.2835014,16.5249385 18.1616569,16.4932328 L18.1616569,16.4932328 L18.1311389,16.4857173 C18.1395655,16.5928123 18.1703113,16.7175216 18.2238318,16.8579663 C18.2898783,17.0331699 18.3850764,17.202737 18.5062377,17.3622051 C18.621022,17.5136881 18.7670076,17.6428597 18.9410061,17.7471364 C19.101112,17.8431931 19.2796654,17.8901646 19.4869149,17.8901646 C19.7454074,17.8901646 20.0583313,17.8121919 20.4168046,17.65883 C20.7946363,17.497483 21.19046,17.2675576 21.5933439,16.9760996 C22.000555,16.6815884 22.4052608,16.328128 22.7958464,15.9253475 C23.18461,15.5242111 23.538756,15.0808003 23.8482637,14.6068581 C24.153672,14.1394919 24.4030547,13.6350182 24.5891237,13.1077634 C24.7706378,12.5931908 24.8626475,12.062413 24.8626475,11.5299913 C24.8626475,10.9684473 24.7806586,10.4562233 24.6191863,10.0071759 C24.4597636,9.56423486 24.2317892,9.1809476 23.9418677,8.86835239 C23.6535403,8.55763607 23.2930174,8.31267977 22.870775,8.14005958 C22.4417003,7.9653257 21.9495397,7.87654957 21.4077304,7.87654957 Z" id="Combined-Shape"></path>
                        <path d="M58.7897176,24.9545455 C58.2538186,25.6029444 57.4962939,26.1059474 56.5171205,26.4635695 C55.5379471,26.8211916 54.4529335,27 53.262047,27 C52.0116161,27 50.9150246,26.7242675 49.9722394,26.1727941 C49.0294542,25.6213208 48.3017012,24.8208609 47.7889584,23.7713904 C47.2762156,22.7219199 47.0132321,21.4886434 47,20.0715241 L47,19.078877 C47,17.6216505 47.2431357,16.3599652 47.7294143,15.2937834 C48.215693,14.2276016 48.9169823,13.4121018 49.8333033,12.8472594 C50.7496244,12.282417 51.8230601,12 53.0536429,12 C54.7671962,12 56.1069235,12.4127633 57.0728648,13.2383021 C58.038806,14.063841 58.6110846,15.2653664 58.7897176,16.8429144 L55.8919082,16.8429144 C55.7595875,16.0073488 55.4668323,15.3957239 55.0136338,15.0080214 C54.5604353,14.6203189 53.9368832,14.4264706 53.1429589,14.4264706 C52.1307054,14.4264706 51.3599487,14.810825 50.8306658,15.5795455 C50.3013829,16.3482659 50.0334375,17.4913026 50.0268214,19.0086898 L50.0268214,19.9411765 C50.0268214,21.4719328 50.3146147,22.6283383 50.8902098,23.4104278 C51.465805,24.1925173 52.309337,24.5835561 53.420831,24.5835561 C54.5389412,24.5835561 55.3361616,24.3429168 55.8125162,23.861631 L55.8125162,21.3449198 L53.1032629,21.3449198 L53.1032629,19.1290107 L58.7897176,19.1290107 L58.7897176,24.9545455 Z M66.1048621,27 C64.5302455,27 63.2484077,26.512037 62.2593103,25.5360963 C61.2702129,24.5601555 60.7756716,23.2600349 60.7756716,21.6356952 L60.7756716,21.3549465 C60.7756716,20.2653689 60.9840736,19.2911139 61.4008839,18.4321524 C61.8176942,17.5731909 62.4081665,16.9114328 63.1723187,16.4468583 C63.9364709,15.9822838 64.8081206,15.75 65.787294,15.75 C67.256054,15.75 68.412189,16.2179098 69.2557336,17.1537433 C70.0992782,18.0895769 70.5210442,19.4164353 70.5210442,21.1343583 L70.5210442,22.3175134 L63.683405,22.3175134 C63.7760295,23.0260731 64.0555528,23.5942492 64.5219834,24.0220588 C64.9884139,24.4498684 65.5788863,24.6637701 66.2934182,24.6637701 C67.3982962,24.6637701 68.261676,24.2593623 68.8835834,23.4505348 L70.2927921,25.0447861 C69.8627497,25.6597624 69.2805473,26.1393699 68.5461673,26.483623 C67.8117872,26.8278761 66.998027,27 66.1048621,27 Z M65.77737,18.0962567 C65.2083908,18.0962567 64.7469292,18.290105 64.3929713,18.6778075 C64.0390134,19.06551 63.8124175,19.6203172 63.713177,20.342246 L67.7026269,20.342246 L67.7026269,20.111631 C67.6893948,19.4699166 67.5173804,18.973598 67.1865786,18.6226604 C66.8557768,18.2717228 66.3860453,18.0962567 65.77737,18.0962567 Z M75.7322997,13.2834225 L75.7322997,15.9505348 L77.5682406,15.9505348 L77.5682406,18.0762032 L75.7322997,18.0762032 L75.7322997,23.4906417 C75.7322997,23.8917132 75.808383,24.1791435 75.9605518,24.3529412 C76.1127207,24.5267388 76.4038219,24.6136364 76.8338643,24.6136364 C77.151434,24.6136364 77.4326113,24.5902409 77.6774047,24.5434492 L77.6774047,26.7393048 C77.1150416,26.9131025 76.5361471,27 75.9407038,27 C73.9294288,27 72.9039586,25.9739407 72.8642624,23.9217914 L72.8642624,18.0762032 L71.2962696,18.0762032 L71.2962696,15.9505348 L72.8642624,15.9505348 L72.8642624,13.2834225 L75.7322997,13.2834225 Z M86.9971981,22.9692513 C86.9971981,22.4010667 86.79872,21.9649079 86.4017579,21.660762 C86.0047957,21.3566161 85.2902745,21.0357637 84.2581728,20.6981952 C83.2260712,20.3606267 82.409003,20.0280765 81.8069437,19.7005348 C80.1661667,18.8048084 79.3457905,17.5982696 79.3457905,16.0808824 C79.3457905,15.2921084 79.5657704,14.5885726 80.0057368,13.970254 C80.4457032,13.3519354 81.0775252,12.8689857 81.9012217,12.5213904 C82.7249182,12.1737951 83.6494954,12 84.674981,12 C85.7070827,12 86.6266979,12.188835 87.4338543,12.5665107 C88.2410108,12.9441864 88.8678708,13.4772693 89.3144532,14.1657754 C89.7610357,14.8542815 89.9843235,15.6363593 89.9843235,16.5120321 L87.0071221,16.5120321 C87.0071221,15.8435795 86.7987201,15.3238655 86.3819098,14.9528743 C85.9650996,14.5818832 85.3795891,14.3963904 84.625361,14.3963904 C83.897597,14.3963904 83.3319344,14.5518033 82.9283562,14.8626337 C82.524778,15.1734641 82.3229919,15.5828852 82.3229919,16.0909091 C82.3229919,16.5655104 82.5595117,16.9632337 83.0325583,17.2840909 C83.5056048,17.6049481 84.2019322,17.9057473 85.1215612,18.1864973 C86.8152665,18.7012058 88.0491388,19.3395684 88.823215,20.1016043 C89.5972912,20.8636402 89.9843235,21.8128285 89.9843235,22.9491979 C89.9843235,24.2125732 89.5112841,25.2035392 88.5651909,25.9221257 C87.6190977,26.6407121 86.3455298,27 84.7444491,27 C83.632955,27 82.6207166,26.7944539 81.7077036,26.3833556 C80.7946906,25.9722573 80.0983633,25.4090945 79.6187006,24.6938503 C79.139038,23.978606 78.8992103,23.1497373 78.8992103,22.2072193 L81.8863357,22.2072193 C81.8863357,23.8181899 82.8390306,24.6236631 84.7444491,24.6236631 C85.4523649,24.6236631 86.0047957,24.4782769 86.4017579,24.1875 C86.79872,23.8967231 86.9971981,23.4906443 86.9971981,22.9692513 Z M96.4261557,24.6637701 C96.9554386,24.6637701 97.3854745,24.5167127 97.7162763,24.2225936 C98.0470781,23.9284745 98.2190924,23.5374356 98.2323245,23.0494652 L100.92173,23.0494652 C100.915114,23.784763 100.716636,24.4582189 100.32629,25.0698529 C99.9359434,25.681487 99.4017065,26.1560812 98.7235627,26.4936497 C98.045419,26.8312183 97.2961642,27 96.4757757,27 C94.9408553,27 93.7301388,26.5070236 92.84359,25.5210561 C91.9570411,24.5350887 91.5137733,23.173137 91.5137733,21.4351604 L91.5137733,21.2446524 C91.5137733,19.5735211 91.9537332,18.2399782 92.833666,17.243984 C93.7135988,16.2479897 94.9210073,15.75 96.4559277,15.75 C97.798983,15.75 98.8757268,16.1360256 99.6861912,16.9080882 C100.496656,17.6801509 100.908498,18.7078813 100.92173,19.9913102 L98.2323245,19.9913102 C98.2190924,19.42981 98.0470781,18.973598 97.7162763,18.6226604 C97.3854745,18.2717228 96.9488226,18.0962567 96.4063077,18.0962567 C95.738088,18.0962567 95.2336228,18.3419093 94.8928969,18.8332219 C94.5521711,19.3245345 94.3818107,20.1216522 94.3818107,21.2245989 L94.3818107,21.5254011 C94.3818107,22.6417168 94.5505171,23.4438478 94.8879349,23.9318182 C95.2253528,24.4197885 95.7380879,24.6637701 96.4261557,24.6637701 Z M108.931555,26.7994652 C108.799234,26.5387687 108.703303,26.2145741 108.643759,25.8268717 C107.949075,26.6089611 107.045999,27 105.934505,27 C104.882555,27 104.010906,26.6925164 103.31953,26.0775401 C102.628154,25.4625638 102.282472,24.6871705 102.282472,23.7513369 C102.282472,22.6015985 102.704237,21.7192544 103.547782,21.1042781 C104.391327,20.4893017 105.610313,20.178476 107.204778,20.1717914 L108.52467,20.1717914 L108.52467,19.5501337 C108.52467,19.0487943 108.397314,18.6477288 108.142596,18.3469251 C107.887879,18.0461215 107.485961,17.8957219 106.93683,17.8957219 C106.453859,17.8957219 106.075097,18.0126994 105.800531,18.2466578 C105.525966,18.4806161 105.388685,18.8014685 105.388685,19.2092246 L102.520648,19.2092246 C102.520648,18.5808792 102.71251,17.9993342 103.09624,17.4645722 C103.47997,16.9298102 104.022477,16.5103625 104.723777,16.2062166 C105.425076,15.9020707 106.212373,15.75 107.08569,15.75 C108.408897,15.75 109.459177,16.0858924 110.236561,16.7576872 C111.013946,17.429482 111.402632,18.373657 111.402632,19.5902406 L111.402632,24.2927807 C111.409248,25.3221977 111.55149,26.1009332 111.829364,26.6290107 L111.829364,26.7994652 L108.931555,26.7994652 Z M106.559718,24.7840909 C106.983144,24.7840909 107.373484,24.6888379 107.73075,24.4983289 C108.088016,24.3078199 108.352654,24.0521406 108.52467,23.7312834 L108.52467,21.8663102 L107.452878,21.8663102 C106.017198,21.8663102 105.253057,22.367642 105.160433,23.3703209 L105.150509,23.5407754 C105.150509,23.9017398 105.276212,24.1991967 105.527621,24.4331551 C105.77903,24.6671135 106.123059,24.7840909 106.559718,24.7840909 Z M117.18948,13.2834225 L117.18948,15.9505348 L119.02542,15.9505348 L119.02542,18.0762032 L117.18948,18.0762032 L117.18948,23.4906417 C117.18948,23.8917132 117.265563,24.1791435 117.417732,24.3529412 C117.569901,24.5267388 117.861002,24.6136364 118.291044,24.6136364 C118.608614,24.6136364 118.889791,24.5902409 119.134585,24.5434492 L119.134585,26.7393048 C118.572221,26.9131025 117.993327,27 117.397884,27 C115.386609,27 114.361138,25.9739407 114.321442,23.9217914 L114.321442,18.0762032 L112.75345,18.0762032 L112.75345,15.9505348 L114.321442,15.9505348 L114.321442,13.2834225 L117.18948,13.2834225 Z M124.206904,13.2834225 L124.206904,15.9505348 L126.042845,15.9505348 L126.042845,18.0762032 L124.206904,18.0762032 L124.206904,23.4906417 C124.206904,23.8917132 124.282987,24.1791435 124.435156,24.3529412 C124.587325,24.5267388 124.878426,24.6136364 125.308469,24.6136364 C125.626038,24.6136364 125.907216,24.5902409 126.152009,24.5434492 L126.152009,26.7393048 C125.589646,26.9131025 125.010751,27 124.415308,27 C122.404033,27 121.378563,25.9739407 121.338867,23.9217914 L121.338867,18.0762032 L119.770874,18.0762032 L119.770874,15.9505348 L121.338867,15.9505348 L121.338867,13.2834225 L124.206904,13.2834225 Z M132.732777,27 C131.158161,27 129.876323,26.512037 128.887225,25.5360963 C127.898128,24.5601555 127.403587,23.2600349 127.403587,21.6356952 L127.403587,21.3549465 C127.403587,20.2653689 127.611989,19.2911139 128.028799,18.4321524 C128.445609,17.5731909 129.036082,16.9114328 129.800234,16.4468583 C130.564386,15.9822838 131.436036,15.75 132.415209,15.75 C133.883969,15.75 135.040104,16.2179098 135.883649,17.1537433 C136.727193,18.0895769 137.148959,19.4164353 137.148959,21.1343583 L137.148959,22.3175134 L130.31132,22.3175134 C130.403944,23.0260731 130.683468,23.5942492 131.149898,24.0220588 C131.616329,24.4498684 132.206801,24.6637701 132.921333,24.6637701 C134.026211,24.6637701 134.889591,24.2593623 135.511498,23.4505348 L136.920707,25.0447861 C136.490665,25.6597624 135.908462,26.1393699 135.174082,26.483623 C134.439702,26.8278761 133.625942,27 132.732777,27 Z M132.405285,18.0962567 C131.836306,18.0962567 131.374844,18.290105 131.020886,18.6778075 C130.666928,19.06551 130.440333,19.6203172 130.341092,20.342246 L134.330542,20.342246 L134.330542,20.111631 C134.31731,19.4699166 134.145295,18.973598 133.814494,18.6226604 C133.483692,18.2717228 133.01396,18.0962567 132.405285,18.0962567 Z M144.960304,18.6677807 C144.569958,18.6143045 144.225929,18.5875668 143.928207,18.5875668 C142.843178,18.5875668 142.131964,18.9585524 141.794546,19.7005348 L141.794546,26.7994652 L138.926509,26.7994652 L138.926509,15.9505348 L141.635762,15.9505348 L141.715154,17.243984 C142.29075,16.2479897 143.08797,15.75 144.10684,15.75 C144.424409,15.75 144.722126,15.7934488 145,15.8803476 L144.960304,18.6677807 Z" id="GetScatter"></path>
                    </g>
                </g>
            </g>
        </g>
    </g>
</svg>