<?xml version="1.0" encoding="UTF-8"?>
<svg width="166px" height="55px" viewBox="0 0 166 55" version="1.1" xmlns="http://www.w3.org/2000/svg" xmlns:xlink="http://www.w3.org/1999/xlink">
    <!-- Generator: sketchtool 59.1 (101010) - https://sketch.com -->
    <title>09D7995A-51E0-4A53-8FC6-9E1574CFF45B</title>
    <desc>Created with sketchtool.</desc>
    <g id="Page-1" stroke="none" stroke-width="1" fill="none" fill-rule="evenodd">
        <g id="VIGOR-Landing-page" transform="translate(-744.000000, -4537.000000)" fill="#FFFFFF">
            <g id="Group-18" transform="translate(332.000000, 4243.000000)">
                <g id="Group-15" transform="translate(15.000000, 289.000000)">
                    <path d="M443.548411,45.9281386 C443.110371,45.9607716 442.837474,45.7985457 442.552397,45.4703377 C437.487298,39.632789 432.408378,33.8069787 427.33227,27.9788208 C426.759538,27.3209961 426.186807,26.6631713 425.612202,26.00699 C425.554109,25.9403154 425.484538,25.8837359 425.383578,25.7877151 C425.36273,25.9022827 425.350549,25.9612099 425.342116,26.0206067 C425.338134,26.0483095 425.341414,26.0767166 425.341179,26.104889 C425.330873,29.550604 425.317755,32.9963189 425.31143,36.4420339 C425.309088,37.8351573 425.125673,39.1958825 424.592295,40.4906375 C423.726757,42.5925306 422.168787,43.9903495 420.115153,44.884822 C418.667279,45.5149439 417.14351,45.7745992 415.582495,45.869681 C413.246595,46.0119514 410.981906,45.7384447 408.869242,44.6559216 C406.066255,43.2193658 404.512268,40.9007801 404.112176,37.7907858 C404.051506,37.3174901 404.03628,36.8357427 404.035812,36.3582211 C404.030658,31.2590231 404.032767,26.1598251 404.032767,21.0606271 L404.032767,20.6645706 L408.190866,20.6645706 L408.190866,21.0378544 C408.190866,26.287305 408.188523,31.5367557 408.191803,36.7862063 C408.193442,40.2070357 410.315476,43.0921206 413.550646,43.9830716 C415.596784,44.5465189 417.628165,44.4399335 419.533989,43.4377016 C422.014185,42.1333211 423.288014,39.9898737 423.428562,37.2367293 C423.541937,35.0169818 423.469086,32.7871391 423.467212,30.5619918 C423.464635,27.3038579 423.451049,24.0459587 423.442851,20.7880595 C423.442851,20.7521397 423.453157,20.7162199 423.463698,20.6462586 C424.064305,20.6462586 424.661866,20.6706746 425.256148,20.6375721 C425.65015,20.6159733 425.90337,20.7580089 426.161977,21.0481843 C431.347479,26.8662471 436.543053,32.675154 441.737924,38.4845303 C441.811946,38.5669345 441.90705,38.6303223 441.992081,38.7026314 C442.017379,38.6890147 442.042209,38.6753981 442.067508,38.6620162 L442.067508,20.6676226 L443.903527,20.6676226 L443.903527,20.9988827 C443.903527,29.18765 443.901888,37.3764173 443.910087,45.5651847 C443.910087,45.8562991 443.824118,45.9077137 443.548411,45.9281386 L443.548411,45.9281386 Z M424.806396,5.00308353 C416.602167,4.88875069 409.658182,7.95507781 404.140286,14.003215 C398.857338,19.793575 396.550016,26.7244462 397.07215,34.5535464 C397.509955,41.1240461 400.06347,46.8193244 404.614633,51.5367869 C409.999244,57.1179671 416.657684,59.8581991 424.285902,60 C431.752021,59.874633 438.168251,57.3675273 443.457992,52.2394526 C448.724074,47.1343854 451.533151,40.8230714 451.797614,33.4881615 C452.080583,25.6358191 449.406666,18.8159939 443.934448,13.2101629 C438.717089,7.86492625 432.272047,5.10685174 424.806396,5.00308353 L424.806396,5.00308353 Z M550.223292,35.6280873 C550.017858,36.264548 549.513292,36.6014425 548.822267,36.6014425 C548.131241,36.6014425 547.62691,36.264548 547.421476,35.6280873 C547.290533,35.2160665 547.253288,34.8416088 547.253288,34.0741466 C547.253288,33.3064497 547.290533,32.9322268 547.421476,32.5204407 C547.62691,31.8837453 548.131241,31.5470855 548.822267,31.5470855 C549.513292,31.5470855 550.017858,31.8837453 550.223292,32.5204407 C550.354001,32.9322268 550.391246,33.3064497 550.391246,34.0741466 C550.391246,34.8416088 550.354001,35.2160665 550.223292,35.6280873 L550.223292,35.6280873 Z M548.822267,29.3376678 C546.916911,29.3376678 545.422422,30.236601 544.899585,31.8837453 C544.694151,32.5389875 544.600921,33.175683 544.600921,34.0741466 C544.600921,34.9728451 544.694151,35.6093057 544.899585,36.264548 C545.422422,37.911927 546.916911,38.8106255 548.822267,38.8106255 C550.727623,38.8106255 552.221878,37.911927 552.744949,36.264548 C552.950382,35.6093057 553.043846,34.9728451 553.043846,34.0741466 C553.043846,33.175683 552.950382,32.5389875 552.744949,31.8837453 C552.221878,30.236601 550.727623,29.3376678 548.822267,29.3376678 L548.822267,29.3376678 Z M521.456489,25.8745799 L519.345465,25.8745799 C519.23373,25.8745799 519.158771,25.9492367 519.158771,26.0614566 L519.158771,34.0741466 L519.065541,34.0741466 L514.582309,26.0614566 C514.507585,25.9306899 514.395615,25.8745799 514.264906,25.8745799 L512.023173,25.8745799 C511.911203,25.8745799 511.836479,25.9492367 511.836479,26.0614566 L511.836479,38.4173862 C511.836479,38.5296061 511.911203,38.6047324 512.023173,38.6047324 L514.133962,38.6047324 C514.246166,38.6047324 514.320891,38.5296061 514.320891,38.4173862 L514.320891,30.4234777 L514.414121,30.4234777 L518.915858,38.4173862 C518.990583,38.5483877 519.084047,38.6047324 519.23373,38.6047324 L521.456489,38.6047324 C521.568459,38.6047324 521.643183,38.5296061 521.643183,38.4173862 L521.643183,26.0614566 C521.643183,25.9492367 521.568459,25.8745799 521.456489,25.8745799 L521.456489,25.8745799 Z M505.261196,29.5435609 L504.103084,29.5435609 C504.028126,29.5435609 503.990881,29.5062325 503.990881,29.4313409 L503.990881,26.9977182 C503.990881,26.8852635 503.916156,26.8106067 503.804187,26.8106067 L501.581193,26.8106067 C501.469458,26.8106067 501.394499,26.8852635 501.394499,26.9977182 L501.394499,29.4313409 C501.394499,29.5062325 501.357254,29.5435609 501.282529,29.5435609 L500.721979,29.5435609 C500.61001,29.5435609 500.535285,29.6186872 500.535285,29.7309071 L500.535285,31.284613 C500.535285,31.3970677 500.61001,31.4719592 500.721979,31.4719592 L501.282529,31.4719592 C501.357254,31.4719592 501.394499,31.5092876 501.394499,31.5844139 L501.394499,35.7027441 C501.394499,37.7809255 502.178989,38.7169523 504.271273,38.7169523 L505.261196,38.7169523 C505.3734,38.7169523 505.44789,38.6420608 505.44789,38.5296061 L505.44789,36.6763341 C505.44789,36.5638794 505.3734,36.4892226 505.261196,36.4892226 L504.812849,36.4892226 C504.215054,36.4892226 503.990881,36.264548 503.990881,35.5905242 L503.990881,31.5844139 C503.990881,31.5092876 504.028126,31.4719592 504.103084,31.4719592 L505.261196,31.4719592 C505.3734,31.4719592 505.44789,31.3970677 505.44789,31.284613 L505.44789,29.7309071 C505.44789,29.6186872 505.3734,29.5435609 505.261196,29.5435609 L505.261196,29.5435609 Z M529.115159,35.5905242 C529.115159,36.4331126 528.554843,36.8448987 527.433976,36.8448987 C526.574762,36.8448987 526.126416,36.526551 526.126416,35.8900903 C526.126416,35.1787381 526.630981,34.8603904 527.732874,34.8603904 L529.00319,34.8603904 C529.077914,34.8603904 529.115159,34.8979535 529.115159,34.9728451 L529.115159,35.5905242 Z M527.583425,29.3376678 C526.089171,29.3376678 524.987044,29.6935787 524.221294,30.236601 C524.12783,30.292711 524.10909,30.3861493 524.165075,30.498604 L525.005549,31.9776532 C525.061534,32.0710915 525.155232,32.0898731 525.248462,32.0149816 C525.678069,31.6966338 526.350589,31.4346308 527.266022,31.4346308 C528.704058,31.4346308 529.115159,31.8276353 529.115159,32.669989 L529.115159,33.0071183 C529.115159,33.0817751 529.077914,33.1193382 529.00319,33.1193382 L527.396497,33.1193382 C525.155232,33.1193382 523.642238,34.0368183 523.642238,36.0398734 C523.642238,37.9682717 525.043028,38.8106255 526.649487,38.8106255 C527.882323,38.8106255 528.666812,38.4173862 529.133664,37.8182539 L529.152404,37.8182539 L529.152404,38.4173862 C529.152404,38.5296061 529.227363,38.6047324 529.339332,38.6047324 L531.412877,38.6047324 C531.524612,38.6047324 531.599571,38.5296061 531.599571,38.4173862 L531.599571,32.6138791 C531.599571,30.348821 530.534923,29.3376678 527.583425,29.3376678 L527.583425,29.3376678 Z M542.508637,29.5435609 L540.267138,29.5435609 C540.154934,29.5435609 540.08021,29.6186872 540.08021,29.7309071 L540.08021,38.4173862 C540.08021,38.5296061 540.154934,38.6047324 540.267138,38.6047324 L542.508637,38.6047324 C542.620607,38.6047324 542.695331,38.5296061 542.695331,38.4173862 L542.695331,29.7309071 C542.695331,29.6186872 542.620607,29.5435609 542.508637,29.5435609 L542.508637,29.5435609 Z M537.950914,29.5435609 L536.792803,29.5435609 C536.717844,29.5435609 536.680599,29.5062325 536.680599,29.4313409 L536.680599,26.9977182 C536.680599,26.8852635 536.605875,26.8106067 536.493905,26.8106067 L534.270911,26.8106067 C534.158942,26.8106067 534.084217,26.8852635 534.084217,26.9977182 L534.084217,29.4313409 C534.084217,29.5062325 534.046972,29.5435609 533.972248,29.5435609 L533.411697,29.5435609 C533.299494,29.5435609 533.225003,29.6186872 533.225003,29.7309071 L533.225003,31.284613 C533.225003,31.3970677 533.299494,31.4719592 533.411697,31.4719592 L533.972248,31.4719592 C534.046972,31.4719592 534.084217,31.5092876 534.084217,31.5844139 L534.084217,35.7027441 C534.084217,37.7809255 534.868707,38.7169523 536.960757,38.7169523 L537.950914,38.7169523 C538.062884,38.7169523 538.137608,38.6420608 538.137608,38.5296061 L538.137608,36.6763341 C538.137608,36.5638794 538.062884,36.4892226 537.950914,36.4892226 L537.502568,36.4892226 C536.904772,36.4892226 536.680599,36.264548 536.680599,35.5905242 L536.680599,31.5844139 C536.680599,31.5092876 536.717844,31.4719592 536.792803,31.4719592 L537.950914,31.4719592 C538.062884,31.4719592 538.137608,31.3970677 538.137608,31.284613 L538.137608,29.7309071 C538.137608,29.6186872 538.062884,29.5435609 537.950914,29.5435609 L537.950914,29.5435609 Z M499.414653,25.8745799 L498.38725,25.8745799 C496.238981,25.8745799 495.211813,26.7918251 495.211813,29.0007733 L495.211813,29.4313409 C495.211813,29.5062325 495.174568,29.5435609 495.099609,29.5435609 L494.539527,29.5435609 C494.427323,29.5435609 494.352599,29.6186872 494.352599,29.7309071 L494.352599,31.284613 C494.352599,31.3970677 494.427323,31.4719592 494.539527,31.4719592 L495.099609,31.4719592 C495.174568,31.4719592 495.211813,31.5092876 495.211813,31.5844139 L495.211813,38.4173862 C495.211813,38.5296061 495.286537,38.6047324 495.398741,38.6047324 L497.6215,38.6047324 C497.73347,38.6047324 497.808194,38.5296061 497.808194,38.4173862 L497.808194,31.5844139 C497.808194,31.5092876 497.845674,31.4719592 497.920164,31.4719592 L499.395913,31.4719592 C499.508117,31.4719592 499.582841,31.3970677 499.582841,31.284613 L499.582841,29.7309071 C499.582841,29.6186872 499.508117,29.5435609 499.395913,29.5435609 L497.920164,29.5435609 C497.845674,29.5435609 497.808194,29.5062325 497.808194,29.4313409 L497.808194,28.9822265 C497.808194,28.2145296 498.013862,28.0086365 498.835363,28.0086365 L499.414653,28.0086365 C499.526856,28.0086365 499.601347,27.933745 499.601347,27.8215251 L499.601347,26.0614566 C499.601347,25.9492367 499.526856,25.8745799 499.414653,25.8745799 L499.414653,25.8745799 Z M492.335039,29.5435609 L490.09354,29.5435609 C489.98157,29.5435609 489.906612,29.6186872 489.906612,29.7309071 L489.906612,38.4173862 C489.906612,38.5296061 489.98157,38.6047324 490.09354,38.6047324 L492.335039,38.6047324 C492.447243,38.6047324 492.521733,38.5296061 492.521733,38.4173862 L492.521733,29.7309071 C492.521733,29.6186872 492.447243,29.5435609 492.335039,29.5435609 L492.335039,29.5435609 Z M471.414069,25.8745799 L469.041861,25.8745799 C468.929891,25.8745799 468.854932,25.9492367 468.854932,26.0614566 L468.854932,33.9992551 C468.854932,35.5156326 468.014458,36.3767679 466.744142,36.3767679 C465.455322,36.3767679 464.614847,35.5156326 464.614847,33.9992551 L464.614847,26.0614566 C464.614847,25.9492367 464.540123,25.8745799 464.428153,25.8745799 L462.055711,25.8745799 C461.943507,25.8745799 461.869017,25.9492367 461.869017,26.0614566 L461.869017,33.9243636 C461.869017,37.0883549 463.886342,38.8106255 466.744142,38.8106255 C469.583671,38.8106255 471.600997,37.0883549 471.600997,33.9243636 L471.600997,26.0614566 C471.600997,25.9492367 471.526273,25.8745799 471.414069,25.8745799 L471.414069,25.8745799 Z M559.918027,29.3376678 C558.759915,29.3376678 557.993931,29.8060334 557.583064,30.3673678 L557.564324,30.3673678 L557.564324,29.7309071 C557.564324,29.6186872 557.489834,29.5435609 557.37763,29.5435609 L555.136131,29.5435609 C555.024161,29.5435609 554.949203,29.6186872 554.949203,29.7309071 L554.949203,38.4173862 C554.949203,38.5296061 555.024161,38.6047324 555.136131,38.6047324 L557.37763,38.6047324 C557.489834,38.6047324 557.564324,38.5296061 557.564324,38.4173862 L557.564324,33.2130114 C557.564324,32.2206398 558.087629,31.5656323 558.984088,31.5656323 C559.918027,31.5656323 560.384879,32.2206398 560.384879,33.2130114 L560.384879,38.4173862 C560.384879,38.5296061 560.459837,38.6047324 560.571807,38.6047324 L562.81354,38.6047324 C562.92551,38.6047324 563,38.5296061 563,38.4173862 L563,32.7075522 C563,30.7232786 561.916613,29.3376678 559.918027,29.3376678 L559.918027,29.3376678 Z M479.502346,35.6280873 C479.296912,36.264548 478.81132,36.6014425 478.101555,36.6014425 C477.410295,36.6014425 476.924469,36.264548 476.719036,35.6280873 C476.607066,35.2721764 476.551081,34.879172 476.551081,34.0741466 C476.551081,33.2691213 476.607066,32.8758821 476.719036,32.5204407 C476.924469,31.8651985 477.410295,31.5470855 478.101555,31.5470855 C478.81132,31.5470855 479.296912,31.8651985 479.502346,32.5204407 C479.614549,32.8758821 479.670534,33.2691213 479.670534,34.0741466 C479.670534,34.879172 479.614549,35.2721764 479.502346,35.6280873 L479.502346,35.6280873 Z M478.942029,29.3376678 C477.746438,29.3376678 476.980688,29.7682355 476.569821,30.3861493 L476.551081,30.3861493 L476.551081,29.7309071 C476.551081,29.6186872 476.476357,29.5435609 476.364387,29.5435609 L474.122654,29.5435609 C474.010685,29.5435609 473.93596,29.6186872 473.93596,29.7309071 L473.93596,41.7872705 C473.93596,41.8997252 474.010685,41.974382 474.122654,41.974382 L476.364387,41.974382 C476.476357,41.974382 476.551081,41.8997252 476.551081,41.7872705 L476.551081,37.7621439 L476.569821,37.7621439 C476.980688,38.3800578 477.746438,38.8106255 478.942029,38.8106255 C480.455024,38.8106255 481.538411,38.0617101 482.005497,36.6390057 C482.229671,35.9274187 482.3229,35.2348481 482.3229,34.0741466 C482.3229,32.8946636 482.229671,32.2206398 482.005497,31.5092876 C481.538411,30.0680364 480.455024,29.3376678 478.942029,29.3376678 L478.942029,29.3376678 Z M492.335039,25.8745799 L490.09354,25.8745799 C489.98157,25.8745799 489.906612,25.9492367 489.906612,26.0614566 L489.906612,27.9149634 C489.906612,28.0271833 489.98157,28.1023096 490.09354,28.1023096 L492.335039,28.1023096 C492.447243,28.1023096 492.521733,28.0271833 492.521733,27.9149634 L492.521733,26.0614566 C492.521733,25.9492367 492.447243,25.8745799 492.335039,25.8745799 L492.335039,25.8745799 Z M542.508637,25.8745799 L540.267138,25.8745799 C540.154934,25.8745799 540.08021,25.9492367 540.08021,26.0614566 L540.08021,27.9149634 C540.08021,28.0271833 540.154934,28.1023096 540.267138,28.1023096 L542.508637,28.1023096 C542.620607,28.1023096 542.695331,28.0271833 542.695331,27.9149634 L542.695331,26.0614566 C542.695331,25.9492367 542.620607,25.8745799 542.508637,25.8745799 L542.508637,25.8745799 Z M487.98275,36.4892226 L487.590622,36.4892226 C487.048812,36.4892226 486.806133,36.2457664 486.806133,35.6280873 L486.806133,26.0614566 C486.806133,25.9492367 486.731408,25.8745799 486.619205,25.8745799 L484.37794,25.8745799 C484.265736,25.8745799 484.191012,25.9492367 484.191012,26.0614566 L484.191012,35.8339804 C484.191012,37.8370355 484.994241,38.7169523 486.992827,38.7169523 L487.98275,38.7169523 C488.094954,38.7169523 488.169678,38.6420608 488.169678,38.5296061 L488.169678,36.6763341 C488.169678,36.5638794 488.094954,36.4892226 487.98275,36.4892226 L487.98275,36.4892226 Z" id="uplift-nation"></path>
                </g>
            </g>
        </g>
    </g>
</svg>